<?xml version="1.0" encoding="utf-8"?>
<!-- Generator: Adobe Illustrator 19.0.0, SVG Export Plug-In . SVG Version: 6.00 Build 0)  -->
<svg version="1.1" id="logo" xmlns="http://www.w3.org/2000/svg" xmlns:xlink="http://www.w3.org/1999/xlink" x="0px" y="0px"
	 viewBox="-34 164.8 358 76" style="enable-background:new -34 164.8 358 76;" xml:space="preserve">
<style type="text/css">
	.st0{fill:#5E5A5B;}
	.st1{fill:#92181E;}
</style>
<g id="XMLID_65_">
	<g id="XMLID_1_">
		<g id="XMLID_106_">
			<path id="XMLID_119_" class="st0" d="M59.2,182.9h0.3c0.9,0,1.7,0.4,2.4,1.2l0.2,0.7v0.3l-0.1,0.4c0.6,0,1.7-0.3,3.3-0.8l0.9-0.4
				c1.8,0.1,2.7,0.5,2.7,1.1c-0.1,0.4-0.2,0.7-0.4,1c-0.4,0.1-0.7,0.1-1.1,0.1s-0.8-0.1-1.2-0.3l-7.9,1.1c-1.2,0.2-2.4,0.5-3.4,0.8
				c0.1,0.2,0.4,0.5,1,0.9v0.2v0.1c-0.2,0.8-0.6,2.4-1.1,4.9c-0.4,1.2-0.8,2.2-1.2,3c-0.3,1-0.4,1.6-0.4,1.8
				c-0.6,1.1-0.9,1.7-0.9,1.8c-0.3,0.4-1,1.5-2.1,3.3c-0.9,1.2-1.8,1.8-2.4,1.8v-0.3c0-0.1,0.3-0.4,0.8-0.9c0.1-0.6,0.5-1.3,1.2-2.2
				c0.5-0.8,0.8-1.5,0.8-2.1c0.7-1.1,1.5-3.6,2.5-7.6c0.4-1.5,0.7-2.3,0.7-2.5c-0.1-1-0.1-1.5-0.2-1.5c-1-0.4-1.5-0.9-1.5-1.3v-0.2
				c0-0.1,0.1-0.3,0.4-0.4c0.9,0,2.9-0.2,6-0.5h0.9c0-0.1,0.1-0.1,0.2-0.1l0,0c-0.1-0.5-0.8-1.2-2.1-2.2V184
				C57.8,183.2,58.4,182.9,59.2,182.9L59.2,182.9z M89.1,182.1L89.1,182.1c1,0,1.6,0.6,2.1,1.9c0.1,0.5,0.2,0.9,0.2,1.1
				c-0.1,0.4-0.5,1-1.3,2l-0.1,0.3c0.3,0.1,0.6,0.2,1,0.2c1.1,0,2-0.4,2.9-1.2c0.3-0.2,0.5-0.3,0.8-0.3H95c0.8,0,1.5,0.4,2,1.3
				c0.1,0.3,0.1,0.6,0.1,0.9v0.2c0,0.1-0.4,0.2-1.1,0.3c-0.5-0.1-1-0.2-1.5-0.2c-0.7,0-2.2,0.2-4.6,0.5h-0.7
				c-0.5,0.8-1.8,2.2-3.7,4.3v0.1c0.4,0.1,0.7,0.1,0.9,0.1l0,0c0.2,0,1.1-0.1,2.7-0.4c0.1-0.2,0.2-0.4,0.2-0.5v-0.2
				c0-0.2-0.1-0.8-0.3-1.8c0.3-0.7,0.7-1,1.2-1h0.3c0.6,0,1.1,0.8,1.5,2.5c0.1,0.3,0.2,0.4,0.2,0.4c0.6-0.1,1.2-0.3,1.9-0.3
				c1,0,1.5,0.3,1.8,1l0.1,0.3v0.2c-0.2,0.4-0.8,0.7-1.8,0.7c-1.1,0-1.8,0.1-2.1,0.3v0.1l0,0l0.1,2.9c0,4.2-0.8,6.9-2.5,8.3
				c-0.5,0.3-0.9,0.4-1.2,0.4l0,0l-0.3-0.3v-0.1c0-0.9-0.6-1.6-1.8-2.2c-0.4-0.3-0.5-0.5-0.5-0.7l0,0l2.3,0.2c0.7,0,1.1-0.8,1.1-2.3
				l0.1-2.3V196v-0.5c-0.1-0.1-0.2-0.1-0.3-0.1c-0.4,0-1.2,0.3-2.4,0.9c-0.9,0.4-1.6,0.7-2.1,1l-0.2,0.1H84c-0.4,0-0.9-0.7-1.5-2.2
				v-0.3c0-0.4,0.4-0.7,1.3-1.1c0.1-0.1,0.3-0.4,0.4-0.8c0.4-0.4,0.7-0.7,0.9-1.1l0.5-1.8c-0.1-0.1-0.3-0.2-0.4-0.2l-1.4,0.4
				c-0.3,0-0.7,0.2-1.2,0.7c-0.7,0.3-1.1,0.4-1.3,0.4c-0.3,0-0.7-0.2-1.2-0.7c-0.5-0.4-0.8-0.8-0.8-1.1l0,0c0-0.3,0.3-0.4,1-0.4
				c0.1-0.1,0.7-0.3,1.6-0.3c1.4-0.1,2.4-0.4,3-0.7l0,0h0.7c0.9-0.1,1.4-0.3,1.5-0.8c0.7-2.8,1.1-4.5,1.1-5.2
				C88.5,182.2,88.8,182.1,89.1,182.1L89.1,182.1z M95.2,197.3c-0.6,0-0.9,0.1-0.9,0.4v0.4l2.6,3.8c0.5,0.3,0.9,0.4,1.1,0.4h0.3
				c0.4-0.2,0.7-0.8,0.7-1.9c0-0.4-0.1-0.9-0.2-1.5C98.4,197.9,97.2,197.3,95.2,197.3L95.2,197.3z M84,198.8h-0.4
				c-0.7,0.4-1.1,0.7-1.2,0.7l-0.9-0.1l0,0l-0.3,0.1c-0.4,0.4-0.7,0.8-0.7,1.3v0.1c0,0.3,0.1,0.6,0.3,0.9c0.5,0.7,1.1,1.1,1.6,1.1
				c0.9,0,1.3-0.5,1.3-1.6v-1.1c0-0.4,0.1-0.8,0.3-1.1L84,198.8L84,198.8L84,198.8z M124,182.2c0.9,0,1.6,0.4,2.3,1.3l0.1,0.2
				l-0.1,0.5v0.1c0.1,0.1,0.9,0.2,2.4,0.2c0.4,0.1,0.6,0.3,0.8,0.5v0.3c0,0.4-0.3,0.5-0.9,0.5l0,0c-0.2,0-0.9-0.1-2.1-0.3h-0.1
				c-0.4,0-0.6,0.1-0.6,0.3c-0.9,1.4-1.4,2.2-1.4,2.5c0.1,0.1,0.3,0.1,0.5,0.2c0.9-0.3,1.5-0.4,1.8-0.4c0.5,0,1,0.4,1.5,1.2
				c0,0.6-0.3,1.9-0.8,3.9c-0.7,1.5-1.2,2.3-1.6,2.3c-0.7,0-2.3,0.3-4.9,0.8l-0.7,0.1c-0.3-0.7-0.7-2.3-1.2-5
				c-0.2-0.7-0.4-1.2-0.7-1.6c0.1-0.4,0.3-0.7,0.5-0.7c0.1-0.1,0.5-0.2,1-0.2l0,0l1.8,0.1c0.6,0,0.9-0.1,0.9-0.3l0.7-2.2l0.1-0.7
				h-0.1c-0.2-0.1-0.5-0.1-0.8-0.1h-0.2l-3,0.4c-0.1,0-0.3,0.1-0.3,0.4c0.1,0.7,0.2,1.3,0.2,1.6v0.1l-0.1,0.5h-0.3
				c-0.7,0-1.2-0.5-1.5-1.6c-0.2-0.3-0.4-0.5-0.4-0.6l0,0c-0.4,0-1.2,0.3-2.5,1c-0.4,0.1-0.7,0.1-0.9,0.1H113
				c-0.5,0-1.3-0.4-2.4-1.3l-0.2-0.1v-0.1c1.3-0.5,2.8-0.8,4.6-0.8h0.7c0.1,0,0.3-0.1,0.4-0.2c-0.1-0.3-0.6-0.7-1.3-1.3l-0.2-0.4
				c0.1-0.3,0.4-0.4,0.7-0.4h0.2c1.5,0.2,2.3,0.4,2.3,0.5l1.2,1.3l4.1-0.4h0.3c0.2,0,0.3-0.3,0.3-0.8l0,0l-0.2-1.5V182L124,182.2
				L124,182.2z M114.7,188.7l-0.4,0.1c-0.1,0.4-0.3,0.9-0.8,1.5c-0.4,1.3-0.8,2.4-1.3,3.3c-0.8,0.9-1.2,1.5-1.2,1.8l0.1,0.3
				c0,0.3,0.4,0.5,1.1,0.6c0.9,0.1,1.4,0.5,1.4,1l0,0l-0.1,0.2c-0.4,0.9-0.6,1.4-0.8,1.5c-1.2,0.8-1.9,1.4-1.9,1.6v0.1
				c0,0.1,0.1,0.3,0.2,0.4c0.4,0.3,0.8,0.4,1.2,0.4h0.4c0.1,0,0.5-0.2,1-0.5l3.2-2.5c0.8-0.4,1.3-0.8,1.4-1.2v-0.2
				c-0.2,0-0.6,0.1-1.1,0.3c-1.9,1-3,1.4-3.2,1.4l-0.1-0.1c0.3-0.6,0.8-1.3,1.4-2.1c0.4-0.5,0.9-1.1,1.6-1.8
				c0.4-0.2,0.5-0.4,0.5-0.7v-0.4c-0.3-0.7-0.7-1-1.2-1c-0.1,0-0.3,0.3-0.7,0.8c-0.7,1.5-1.3,2.4-1.8,2.5l0,0
				c-0.4-0.3-0.8-0.7-1.2-1.2c0.1-0.3,0.7-0.9,1.8-1.8l1.4-1.9c0.6-0.4,0.9-0.8,0.9-1V190C116,189.1,115.4,188.7,114.7,188.7
				L114.7,188.7L114.7,188.7z M120.4,191c0.1,1.2,0.3,1.8,0.6,1.8c0.4-0.1,1.2-0.5,2.3-1.1c0.3-0.1,0.5-0.1,0.8-0.1h0.2l0,0
				c0,0.6-0.4,1.1-1.2,1.5c-0.4,0.1-0.7,0.2-1.1,0.2h-1c-0.1,0.3-0.2,0.6-0.2,1v0.2c0,0.5,0.1,0.9,0.4,1.1c1.2-0.3,2.5-0.5,3.7-0.8
				c0.5-0.9,0.8-2.1,0.8-3.5v-1.6c0-0.1-0.1-0.1-0.4-0.2c-0.8,0.4-1.6,0.6-2.4,0.8l-2.3,0.4L120.4,191L120.4,191z M128.1,197.8h0.3
				c0.4,0,0.8,0.3,1.1,1c0.1,0.3,0.2,0.5,0.2,0.7c0,0.3-0.3,0.8-1,1.5c-0.3,0.5-0.7,1.4-1.1,2.6l-0.5,0.8v0.1
				c0.1,0.1,0.2,0.2,0.4,0.2l1.3-0.2h0.2c0.2,0,0.3,0.2,0.3,0.5s-0.1,0.5-0.2,0.5H128c-2.8,0-5.3,0.1-7.7,0.4
				c-0.3,0.1-0.8,0.2-1.4,0.2h-0.2c-0.5,0-0.9-0.1-1.1-0.4v-0.1c0-0.1,0.5-0.3,1.5-0.3l0.5-0.3c-0.4-2-0.8-3.4-1-4.3
				c-0.3-0.7-0.6-1.2-0.9-1.6l0,0c0-0.4,0.3-0.6,0.9-0.7c0.4,0,0.7,0.3,0.7,1c0,0.9,0.3,2.3,0.8,4.4c0.4,0.9,0.7,1.3,1,1.3
				c0.4-0.1,0.7-0.3,0.7-0.4l0.1-0.7c0-0.3-0.2-1.4-0.6-3.3l-0.1-0.7v-0.2c0-0.1-0.2-0.2-0.7-0.4l-0.1-0.1v-0.1
				c0.3-0.4,0.8-0.5,1.5-0.5c0.9,0,1.7-0.1,2.2-0.4c1.3-0.2,2.5-0.3,3.5-0.3h0.1L128.1,197.8L128.1,197.8z M124,204.6
				c0.1,0.1,0.4,0.2,0.9,0.2h0.2c0.5-0.5,1.1-1.7,1.9-3.5l0.9-2.9l-0.3-0.2l-1.9,0.5c-0.4,0.2-0.6,0.6-0.8,1.2
				c-0.1,0.4-0.4,1.7-0.7,3.8L124,204.6L124,204.6z M122,200c0.2,1.5,0.4,3.1,0.5,4.6c0.2,0.2,0.4,0.3,0.5,0.3l0.4-0.3l0.5-3.8
				l0.1-1c0-0.4-0.1-0.7-0.3-0.7h-0.3c-0.7,0-1.2,0.2-1.5,0.7v0.2H122z M116.7,201h0.3l0.1,0.1v0.1c0,0.4-0.4,0.8-1.1,1.4
				c-0.4,0.4-1,1.1-1.6,2c-0.5,0.4-0.8,0.8-1,1.1c-0.4,0.4-0.6,0.5-0.7,0.6s-0.4,0.1-0.9,0.1c-0.9-0.1-1.3-0.3-1.3-0.8v-0.1
				c0-0.4,0.7-1,2.2-1.6C114.5,202.7,115.8,201.8,116.7,201L116.7,201z M145.9,182c0.6,0.2,1.1,0.6,1.5,1.1c0.4,0.7,0.5,1.5,0.5,2.5
				c-0.2,0.1-0.3,0.1-0.3,0.2l-0.9-0.1c-1.2,0-2.6,0.6-4.4,1.8c-0.7,0.4-1.2,0.5-1.4,0.5l0,0c0.3-0.9,1.2-2.1,2.6-3.7L145.9,182
				L145.9,182z M153,182.6c0.8,0,1.4,0.5,1.8,1.5v0.5v0.3l0.2,0.1c1.2,0,2.3-0.4,3.1-1.3h0.1c0.7,0.2,1.2,0.5,1.5,0.9v0.3
				c0,0.4-0.1,0.5-0.3,0.5c-1.2,0.1-2.8,0.4-4.6,0.7c-0.4,0.4-0.9,1.1-1.5,2.1l-0.4,0.4l0.5,0.1c0.4,0,1.4-0.2,3-0.7l1.1-0.1h0.1
				c0.3,0,0.6-0.4,0.8-1.2v-0.1h0.1c0.8,0,1.5,0.6,2,1.8c-0.8,2.3-1.6,3.8-2.5,4.7l-0.4,0.3l-1.5-0.1c-0.9,0-2.5,0.3-4.8,0.8
				c-0.5,0.3-1,0.4-1.5,0.4l0,0c-0.3,0-0.5-0.1-0.5-0.4V194c0-0.1,0.1-0.5,0.4-1l0.1-0.2c0-0.4-0.3-1.1-0.8-2.1
				c-0.1-0.4-0.1-0.7-0.1-1c0-0.4,0.1-0.7,0.4-0.7h0.1c0.1,0,0.4,0.2,0.9,0.5h0.2c0.4,0,1-0.2,1.9-0.7v-0.3c0-0.6,0.1-1.1,0.3-1.5
				c-0.1-0.2-0.3-0.3-0.4-0.3c-0.2,0-0.6,0.1-1.2,0.4h-0.5c-0.6,0-1-0.2-1.1-0.7v-0.2c0-0.3,0.6-0.5,1.8-0.5c0.9,0,1.4-0.1,1.5-0.3
				c0.2-0.1,0.3-0.4,0.3-0.8c0-0.4-0.2-1-0.7-1.6l0,0C152.3,182.7,152.6,182.6,153,182.6L153,182.6z M145.2,188.4h0.1
				c1.2,0.7,1.9,1.5,1.9,2.2c0,0.5-0.7,0.9-2.1,1.2c-0.4,0.2-0.5,0.4-0.5,0.4c0,0.2,0.4,0.3,1.1,0.3c0.1,0.1,0.2,0.3,0.2,0.4l0,0
				c0,0.4-0.3,1.2-0.8,2.3c-0.4,1.2-0.5,2.8-0.5,4.6v2.8c0,2.3-0.1,3.4-0.4,3.4c0,0.1-0.1,0.1-0.2,0.2l0,0c-0.4,0-0.9-0.3-1.3-0.9
				c-0.1-0.4-0.2-0.7-0.2-1.1c0-0.4,0-0.7,0.1-0.7V202v-0.5c0-1.7,0.2-3.2,0.6-4.5c0-0.4,0.1-1.3,0.3-2.6l0.1-0.4
				c0-0.3-0.1-0.6-0.2-0.9c-0.3,0.1-0.9,0.7-1.9,1.5c-0.4,0.4-0.8,0.7-1.2,0.9H140c0.4-1.3,1.5-3.1,3.5-5.4L145.2,188.4L145.2,188.4
				z M156,189.2h-0.2c-0.2,0.1-0.3,0.3-0.3,0.5l0.1,1.6l-0.1,0.5l0.2,0.1c0.1,0,0.5-0.1,1.1-0.2c0.2-0.5,0.5-1.5,0.9-3
				c0-0.1-0.1-0.1-0.3-0.2c-0.1,0-0.4,0.1-1.1,0.4L156,189.2L156,189.2z M152.2,190.3c0.4,0.6,0.6,1,0.6,1.3v0.3v0.4
				c0.2,0.1,0.4,0.2,0.4,0.2c0.8,0,1.2-0.4,1.2-1.3c0-1-0.1-1.4-0.3-1.4c-0.1-0.1-0.3-0.1-0.5-0.1h-0.1
				C152.9,189.7,152.5,189.9,152.2,190.3L152.2,190.3z M150,191c0,1,0.3,1.7,0.9,2l0.2,0.1c0.4,0,0.6-0.1,0.7-0.4v-0.4
				c-0.1-1.2-0.3-1.9-0.7-1.9h-0.2C150.3,190.4,150,190.6,150,191L150,191z M158.2,194.5c-0.5,0-0.9,0.1-1.1,0.2
				c-0.8,0.2-2.4,0.5-4.8,0.9l-5.3,1h-0.1c-0.5,0-0.8,0.1-0.8,0.4v0.1c0,0.2,0.1,0.4,0.4,0.7c0.4,0,1-0.1,2-0.2
				c2.7-0.8,4.6-1.2,5.8-1.2h0.2l0.3,0.1c0.3-0.2,0.9-0.3,1.9-0.3c1.6,0,2.6-0.1,2.8-0.2v-0.1c0-0.2,0-0.4-0.1-0.5
				c-0.4-0.5-0.7-0.8-0.9-0.8L158.2,194.5L158.2,194.5z M159.6,197c0.6,0,1.2,0.3,1.9,0.8c0.4,0.4,0.5,0.8,0.5,1v0.3
				c0,0.3-0.2,0.5-0.7,0.8l0,0c-0.7-0.2-1.5-0.8-2.4-1.8l-0.5-0.7l0,0C158.6,197.2,159,197,159.6,197L159.6,197z M153.7,198.5h0.1
				c0.5,0.5,0.9,0.8,1.2,0.8h0.1l0.7-0.2l0,0c-0.1,1.4-0.4,2.1-0.7,2.1c-0.6,0-1.1-0.4-1.5-1.2l-0.1-0.7
				C153.5,199.1,153.6,198.8,153.7,198.5L153.7,198.5z M150,199.6l0.2,1.6v0.3c0.2,0.4,0.6,1.1,1.2,2.1c0.3,0.6,0.8,1.1,1.4,1.5
				c1.2,0.7,2.6,1,3.9,1h0.3c0.6,0,1.1-0.1,1.5-0.2c0.7-0.1,1.3-0.3,1.6-0.4c0.7-0.4,1.2-1,1.5-1.6v-0.1c-0.2-0.4-0.5-0.5-0.8-0.5
				h-0.4c-0.1,0-0.3,0-0.5-0.1c-0.8-0.7-1.4-1.1-1.6-1.1h-0.1c0,0.2,0,0.4,0.1,0.6c0.6,0.7,0.9,1.2,0.9,1.4l-0.3,0.3h-0.3h-0.5
				c-1.6,0-3.2-0.4-4.7-1.1c-0.7-0.3-1.4-0.9-2-2c-0.3-0.6-0.7-1.1-1.2-1.6L150,199.6L150,199.6z M147.4,200.3h-0.1
				c-0.5,1-0.8,2-0.8,2.8l0.1,0.4c0.1,0.7,0.5,1.1,1.2,1.1c0.3-0.2,0.4-0.5,0.4-0.9v-0.4c-0.4-1.2-0.6-2-0.7-2.5l0.1-0.1v-0.3
				L147.4,200.3L147.4,200.3z M183.8,181.8h0.3c0.7,0,1.3,0.4,1.8,1.2c0,0.6,0.1,0.9,0.2,0.9h0.2c0.2,0,0.7-0.1,1.4-0.3h0.3
				c0.5,0,1.1,0.4,1.6,1.2c0.2,0.4,0.3,0.9,0.3,1.4v0.3c0.1,0.1,0.2,0.3,0.2,0.3c1.5-0.3,2.3-0.4,2.5-0.4h0.1c0.7,0,1.1,0.3,1.3,1
				c0,0.4-0.2,0.7-0.7,1h-0.1c-0.6-0.2-1.3-0.3-2.1-0.3c-1.7,0.1-2.5,0.4-2.5,0.8l-0.7,1.6c0,0.1,0.3,0.3,0.8,0.6v0.1v0.3
				c0,0.4-0.8,0.7-2.4,0.7c-0.4,0-0.7,0.1-0.7,0.4v0.3c0,0.3,0.1,0.5,0.3,0.8c1.1-0.4,1.8-0.5,2-0.5h0.2c0.4,0,0.6,0.3,0.8,0.9v0.1
				c-0.1,0-0.2,0.1-0.2,0.3h-0.1h-0.8c-1.5,0.1-2.2,0.4-2.2,0.7v0.4c0,0.4,0.1,0.7,0.3,0.9h0.7c1.3,0,2.3-0.3,2.8-0.9l0.4-0.1
				c0.7,0,1.1,0.4,1.4,1.2l0.1,0.4c0,0.4-0.1,0.8-0.4,1.1h-0.1l-2.9-0.8h-0.8c-0.7,0-1.2,0.3-1.5,0.9v0.1l0.1,0.3v1.8l-0.4,4.5
				c-0.1,0.6-0.4,1.1-0.8,1.6h-0.1c-0.2-0.7-0.5-1.9-0.8-3.6c-0.1-2.2-0.2-3.7-0.2-4.4c-0.1-0.1-0.2-0.2-0.3-0.3
				c-1.8,0.7-3.1,1.4-4.2,2c-0.4,0.1-0.8,0.2-1,0.2c-0.4,0-0.7-0.4-0.8-1.1c0.2-0.4,0.7-0.5,1.3-0.5c0.8-0.2,2.1-0.6,3.9-1.2
				c0.4-0.1,0.7-0.2,0.7-0.3c0.1-0.1,0.2-0.3,0.2-0.3c0-0.5-0.1-0.9-0.4-1.2l-1.8,0.4h-0.2c-0.4,0-0.7-0.1-0.9-0.4l0,0
				c0.1-0.3,0.4-0.5,0.7-0.5l2-0.5c0.4-0.2,0.7-0.5,0.7-0.9l0,0c0-0.5-0.1-0.8-0.4-0.8h-0.1l-1.9,0.7c-0.1,0-0.3,0-0.7,0.1
				c-0.3,0-0.5-0.1-0.7-0.4l0,0c0.1-0.4,1.3-1,3.5-1.6v-1v-0.4c0-0.4-0.2-0.7-0.7-0.8l0,0c-0.7,0.1-1.6,0.5-2.6,1.4
				c-0.1,0.1-0.4,0.2-0.7,0.2s-0.6-0.3-0.9-0.8l-0.2-0.1c-0.4,0.2-1.2,0.5-2.4,1c-0.5,0.3-0.8,0.6-1,0.9v4.4c0,2.8,0.2,5.3,0.6,7.5
				c-0.4,0.9-0.8,1.5-1.2,1.6l0,0c-0.3,0-0.6-0.5-0.9-1.5l-0.3-0.4v-2.4l0.1-2.8c0.1,0,0.1,0,0.1-0.1c0-0.9,0.1-2.2,0.2-3.8l0.2-0.4
				c0-0.1-0.1-0.3-0.2-0.3c-1.2,1.5-2.2,2.5-2.9,3.1s-1.1,0.9-1.4,1v-0.1c0-0.1,0.7-1.2,2-3.2c0.7-0.9,1.2-1.8,1.8-2.6
				c0.2-0.1,0.5-0.4,0.8-0.9c0.5-1.1,1.1-1.9,1.6-2.3l0,0h0.1c1,0.3,1.7,0.5,2.1,0.8c0.8-0.3,2.1-0.6,3.9-1c1.2-0.4,1.8-0.7,1.8-0.9
				c0-0.7-0.5-1.4-1.4-1.9c-0.3-0.3-0.4-0.5-0.4-0.8c0-0.1,0.5-0.2,1.4-0.2c0.2-0.1,0.3-0.3,0.3-0.3c-0.1-0.5-0.3-1.2-0.5-2.1
				l-0.1-0.2C183.1,181.9,183.5,181.8,183.8,181.8L183.8,181.8z M175.6,182.4l-0.7,0.1c-0.2,0.6-0.5,1.1-0.8,1.5
				c-1,1.4-1.6,2.5-1.8,3.3v0.1c0.4,0,1-0.5,2-1.5c1-0.4,1.8-0.8,2.2-1.1c0.5-0.2,0.8-0.5,0.8-0.8v-0.1c0-0.7-0.4-1.2-1.1-1.5H175.6
				L175.6,182.4z M185.7,185.4v1.4c0.2,0.4,0.5,0.5,0.8,0.5c0.4,0,0.8-0.4,1.1-1.2c0.1-0.3,0.1-0.5,0.1-0.8v-0.1
				c0-0.3-0.1-0.5-0.3-0.7C186.7,184.7,186.1,184.9,185.7,185.4L185.7,185.4z M185.6,189.8c0.1,0.8,0.2,1.2,0.3,1.2h0.1
				c0.3,0,0.5-0.7,0.5-2.1c0.1,0,0.1-0.1,0.1-0.2c-0.2-0.1-0.4-0.2-0.4-0.2C185.9,188.5,185.7,188.9,185.6,189.8L185.6,189.8z
				 M221.4,182.5c0.6,0.2,1.1,0.6,1.4,1.1v0.3c0,0.4-0.3,0.5-0.8,0.5c-0.3,0-1.2-0.1-2.9-0.4l-1.8,0.1c-0.2,0.1-0.7,0.1-1.3,0.2
				l-0.1,0.1c0.7,0.7,1,1.7,1,3.2v1.4c0.1,0.2,0.3,0.3,0.7,0.3l1.8-0.1c0.3,0,0.5,0.1,0.7,0.2v0.1c-0.2,0.3-0.7,0.5-1.3,0.7
				c-1.1,0.3-1.6,0.6-1.6,1l0,0v0.4l0.3,7.2v0.1c0,3.4-0.5,5.7-1.6,6.8h-0.1c-0.2-0.4-0.4-1.6-0.5-3.7c0-0.4-0.1-0.9-0.2-1.6
				l0.1-0.4c-0.1-0.8-0.2-1.8-0.2-3.1v-2v-1.3v-1.1v-0.2c0-0.6-0.2-0.9-0.5-1.1c-0.4-0.2-0.5-0.4-0.5-0.7l0,0c0-0.2,0.3-0.4,0.9-0.5
				c0.1,0,0.2-0.4,0.2-1.3L215,185c-0.1-0.1-0.1-0.3-0.2-0.3c-0.7,0.2-1.8,0.6-3.3,1.2H211c-0.9-0.4-1.3-0.8-1.3-1.2
				c0.1-0.2,0.3-0.3,0.6-0.3h0.4c0.4,0,1.2-0.2,2.5-0.7c0.6-0.1,2.7-0.4,6.4-0.8L221.4,182.5L221.4,182.5z M206.4,182.6
				c1,0,1.7,0.5,2.1,1.4l0.1,4.4c-0.1,6.7-0.2,10-0.3,10c-0.1,0.9-0.4,1.8-0.7,2.8c-0.4,0.9-0.9,1.8-1.5,2.6
				c-0.6,0.7-0.9,1.1-1.1,1.1c-0.4,0.1-1.1,0.4-2.1,1.1l-0.4,0.1v-0.3c0-0.2,0.4-0.7,1.1-1.3c2-4,3.1-7.8,3.1-11.4l-0.2-1.1
				c0-4.7-0.1-7.5-0.4-8.6l-0.1-0.5C206,182.7,206.2,182.6,206.4,182.6L206.4,182.6z M202.5,186.3h-0.1l-0.2,0.2
				c0.4,5,0.6,8.3,0.8,10c0,0.5,0.4,0.9,1.1,1.3h0.1c0.6-0.2,0.9-0.8,1-1.8v-0.3c-0.3-2.5-0.4-4.2-0.4-5.1v-1.2v-1.6
				C204.1,187.1,203.4,186.7,202.5,186.3L202.5,186.3z M220.7,188.5c-0.1,0.4-0.3,0.9-0.3,1.6c0,2.9-0.1,4.7-0.3,5.5
				c-0.1,0.1-0.4,0.4-0.9,0.7c0.4,0.9,0.6,1.6,0.6,2.2c0,0.4,0.3,0.7,1,0.7h0.1h0.5c0.4-0.5,0.9-1.2,1.3-2.2c0.4-2,0.6-3.6,0.6-4.7
				l0,0c0-0.7-0.3-1.5-0.9-2.4C222,189.2,221.5,188.7,220.7,188.5L220.7,188.5z M211.4,191c-0.3,0.2-0.4,0.4-0.4,0.4
				c0.1,0.4,0.1,0.7,0.1,1.1l-0.1,2v0.3l0.1,0.4c0.4,2,0.8,3,1.3,3h0.1c0.4-0.2,0.5-0.7,0.5-1.4v-0.5l-0.8-2.7c0-1-0.1-1.8-0.4-2.4
				c-0.1,0-0.2,0-0.2-0.1h-0.2V191z"/>
			<path id="XMLID_107_" class="st0" d="M240.9,182.4c0.9,0,1.5,0.4,1.9,1.3v0.3v0.1l0.4,0.5c2.6-0.4,4.2-0.7,4.8-1.1
				c0-0.1,0.1-0.1,0.4-0.1h0.1c1,0,1.7,0.4,2,1.3v0.7c-0.2,0.3-0.4,0.4-0.5,0.4h-0.1c-0.1,0-0.6-0.3-1.4-0.8
				c-0.5-0.1-1.1-0.2-1.6-0.2l-3.8,0.3c0,0.2,0,0.3,0,0.3c0.1,0.4,0.1,0.9,0.1,1.3v0.1c0.2,0.2,0.4,0.3,0.7,0.3h0.2
				c0.3,0,0.9-0.4,2-1.2l0.3-0.1c0.7,0.4,1,0.7,1,1.1l-0.9,1.3c-0.2,0.4-0.3,0.8-0.3,1.2l0.1,0.5c-0.2,0.4-0.8,0.5-1.6,0.5
				c-0.7,0-1.1,0.1-1.4,0.3c0.1,0.9,0.2,1.4,0.3,1.4c0.4,0,1.8-0.2,4.2-0.7c0.5,0,0.8-0.1,1-0.3c0.1-0.5,0.4-0.8,0.7-0.8h0.3
				c0.4,0,0.9,0.3,1.3,1v0.5l0,0c0,0.3-0.3,0.8-1,1.6c-0.1,0.2-0.2,0.4-0.2,0.5l0,0l0.4,0.1h0.1c0.2,0,0.7-0.2,1.5-0.7h0.5h0.2
				c0.4,0,0.9,0.3,1.3,0.9v0.3c0,0.3-0.3,0.5-0.9,0.5h-0.1l-2.6-0.3l0,0c-0.7,0-1.1,0.3-1.4,0.9c-0.5,0.7-0.8,1.1-0.8,1.4l0,0
				c0.9,0.3,1.4,0.7,1.4,1.1c-0.1,0.3-0.4,0.4-0.9,0.4l-1.8-0.3c-1.8,0.1-2.8,0.3-3.1,0.4l-0.1,4.9c-0.2,1.2-0.5,2-0.8,2.4
				c-0.4,0.4-0.7,0.7-1,0.7c-0.5,0-1-0.8-1.3-2.3l-0.1-0.2c0.1-0.1,0.3-0.2,0.7-0.3c0.1,0,0.1-0.9,0.2-2.6v-0.3
				c0-0.9-0.1-1.3-0.3-1.3l-0.4-0.1c-0.5,0-1.4,0.4-2.5,1.1c-0.4,0.2-0.8,0.3-1.2,0.3c-0.5,0-0.9-0.3-1.1-0.9l0,0
				c2.4-0.9,4.1-1.4,5-1.4l0.4-0.3V198v-0.2c0-0.4-0.1-0.6-0.3-0.8l0,0c-1.2,0-3.1,0.5-5.7,1.6c-0.2,0.2-0.4,0.3-0.7,0.3l0,0
				c-0.7,0-1.1-0.3-1.3-1l0,0c0.2-0.3,1-0.6,2.4-0.8c1.5-0.4,2.4-0.7,2.6-0.7c0.6,0,1.4-0.1,2.5-0.4l0.2-0.2v-1.3
				c0-0.1-0.1-0.3-0.2-0.5h-0.2c-0.1,0-0.8,0.2-2.1,0.5H238c-0.4,0-0.7-0.2-0.9-0.7l0,0c0.1-0.3,1-0.5,2.5-0.7
				c0.9-0.1,1.3-0.4,1.3-1.1v-0.3c-0.1-0.4-0.3-0.5-0.7-0.5c-0.3,0-0.9,0.3-1.8,0.8c-0.1,0.1-0.3,0.1-0.4,0.1h0
				c-0.4-0.3-0.9-1.2-1.5-2.8l-0.3-0.8c0-0.1,0.2-0.3,0.5-0.4c0.6,0,1,0.3,1.3,0.9c0.2,0.9,0.5,1.6,0.8,1.9c1.2-0.1,1.9-0.3,1.9-0.4
				l0.2-0.1c-0.1-1-0.3-1.6-0.6-1.8c-0.3,0.1-0.5,0.2-0.7,0.2h-0.3c-0.2,0-0.4-0.1-0.6-0.2v-0.1c0-0.2,0.5-0.4,1.4-0.7
				c0.2-0.2,0.3-0.4,0.3-0.4l-0.1-0.1l0.1-0.4v-0.3c0-0.6-0.1-0.9-0.3-0.9c-2.3,0.6-3.8,1-4.6,1.3l-1,0.6c-0.9-0.1-1.3-0.5-1.3-1.3
				l0,0c2.2-0.5,4.5-0.9,6.8-1.3l0.1-0.4c0-0.3-0.2-0.7-0.5-1.3V183C240,182.6,240.4,182.4,240.9,182.4L240.9,182.4z M243,189
				c0,0.6,0.2,0.9,0.7,1l0,0c0.4,0,0.7-0.4,0.8-1.3l0.1-0.8c-0.2-0.1-0.4-0.3-0.5-0.3C243.4,187.6,243.1,188.1,243,189L243,189z
				 M243.3,194.7c0.1,0.5,0.3,0.8,0.5,0.8h0.1l2.7-0.6h0.5h0.1c0.4-0.4,0.8-1.2,1-2.2v-0.1c-0.1-0.1-0.3-0.2-0.5-0.2
				c-0.5,0-1.9,0.3-4.2,0.8c0,0.1-0.1,0.3-0.2,0.3L243.3,194.7L243.3,194.7z M243.4,196.7v0.4v0.7c0,0.3,0.1,0.5,0.3,0.7
				c0.4,0,0.9-0.1,1.8-0.4h0.4h0.1c0.5-0.5,0.9-1.2,1.2-2.1l-0.7-0.1h-0.1c-0.4,0-1.2,0.2-2.4,0.5c-0.3,0-0.4,0.1-0.4,0.2
				C243.5,196.6,243.4,196.6,243.4,196.7L243.4,196.7z M277,182c0.7,0.2,1,0.6,1,1.2c-1.7,1.5-2.7,2.6-3.2,3.4
				c-0.3,0.4-0.4,0.8-0.4,1v0.2c0,0.4,0.5,0.9,1.6,1.4c1.2,0.7,2.2,1.3,2.8,1.8c0.7,0.3,1.4,0.6,2.1,0.9c0.4,0.2,1.8,0.6,3.9,1.1
				c1.1,0.4,1.7,0.8,1.8,1l0,0c-0.4,0.4-0.8,0.7-1.3,0.9l-3.1,0.7l-0.4,0.1h-0.3c-0.6,0-1.4-0.4-2.5-1.1c-0.2-0.1-0.8-0.4-1.6-0.9
				c-0.5-0.3-1.4-1.1-2.6-2.3l-1.5-1.4c-0.5,0.3-1.3,1.1-2.3,2.4c0,0.1-0.4,0.5-1.3,1.2c-1.2,1.2-1.9,1.9-2.1,1.9
				c-0.4,0.3-1.3,0.9-2.6,2c-1,0.7-1.9,1-2.6,1l0,0c0.1-0.6,0.8-1.3,2.1-2.2c0.9-0.6,1.8-1.3,2.4-2.1l2.7-2.6c0.2-0.4,0.8-1,1.6-1.9
				l1-1.1l-1-1.5c-0.1-0.3-0.2-0.5-0.2-0.7v-0.1c0-0.2,0.1-0.4,0.2-0.7c0.3,0,0.8,0.3,1.4,1c0.1,0.1,0.3,0.1,0.5,0.2
				c0.3,0,0.5-0.4,0.8-1.2c0.9-1.1,1.5-1.9,1.8-2.4l0,0h-0.2c-0.4,0-0.9,0.2-1.8,0.7c-0.1,0.1-0.3,0.1-0.7,0.2
				c-0.4,0-0.7-0.1-0.9-0.3l0,0c0-0.4,0.2-0.6,0.7-0.8C273.5,182.7,274.9,182.4,277,182L277,182z M269.8,182.4c0,0.1-0.5,1-1.4,2.5
				c-1.9,2.2-3,3.6-3.4,4.2l0,0l0.1,0.2c0.6,0,1.5-0.4,2.6-1.1c0.4-0.1,1-0.6,1.5-1.3c1.6-1.2,2.4-2.3,2.4-3.4
				C270.8,182.7,270.2,182.4,269.8,182.4L269.8,182.4L269.8,182.4z M273.2,193.4c-0.6,0-1.2,0.3-1.9,0.8l-0.3,1.5
				c-0.2,0.5-0.6,0.9-1,1.1c-1.8,0.3-2.9,0.5-3.5,0.8h-0.1l0,0c0,0.5,0.3,0.8,1,0.9l2.2-0.2h0.1c-0.3,0.7-0.7,1.5-1.1,2.3
				c-0.7,1-1.8,2.6-3.3,4.6v0.1c0.3-0.1,0.5-0.1,0.7-0.2c1.5-0.6,2.7-1.8,3.8-3.5c0.9-1.4,1.6-2.3,2-2.9c0.2-0.5,0.4-0.8,0.5-1
				c0.3-0.4,0.8-0.7,1.5-0.9c0.2,0,0.9-0.3,2.1-1c0.4,0.6,0.7,1.3,0.7,2.2c0,0.8-0.2,1.8-0.7,2.8c-0.9,1.8-1.6,2.6-2.1,2.6l-1-0.3
				c-0.2,0-0.4,0.1-0.4,0.2v0.1c0.3,0.1,0.4,0.4,0.4,0.9v0.1c0,0.3-0.1,0.9-0.4,1.8c0,0.1,0.2,0.2,0.7,0.2c0.4,0,0.9,0,1.3-0.1
				c0.5-0.3,0.9-0.5,1.2-0.5c0.4,0,1.1-0.7,2.3-2.2c1.2-1.8,1.9-3.7,1.9-5.7l-0.1-1.8c0-0.6-0.8-1.1-2.4-1.6l0,0
				c-0.2,0-0.6,0.1-1,0.2c-1.1,0.7-1.9,1-2.4,1c-0.1-0.1-0.2-0.2-0.2-0.3v-0.1c0-0.1,0-0.2,0.1-0.3c0.4-0.4,0.5-0.7,0.5-0.9V194
				c-0.1-0.4-0.3-0.5-0.5-0.5h-0.6V193.4z M302.6,181.8c0.2,0,0.7,0.1,1.3,0.4c0.1,0.1,0.1,0.2,0.1,0.3v0.2c0,0.3-0.1,0.5-0.4,0.7
				c-0.9,0.3-2.7,0.7-5.4,1.2c-0.2,0.2-0.3,0.6-0.3,1.1c0,0.9,0.1,1.4,0.4,1.4h0.4c0.4,0,1.3-0.3,2.7-0.8c0.7-0.1,1.2-0.2,1.3-0.3
				c0.3-0.3,0.5-0.4,0.8-0.4h0.1c0.5,0,0.8,0.4,1,1.2v0.1c0,0.5-0.3,1.2-1,2.2c-0.1,0.4-0.2,0.8-0.2,1c0,0.3,0.3,0.6,0.8,0.9
				c0.1,0.1,0.1,0.2,0.1,0.4c-0.1,0.4-0.3,0.6-0.6,0.6l-4.7,0.8h-1.2c-0.1,0-0.3,0.3-0.3,1c-0.2,1.9-0.6,3.7-1.1,5.4
				c-0.4,1.2-0.9,2.2-1.5,3.1c-0.7,0.7-1.1,1-1.3,1l-0.1-0.4c0-0.1,0.2-0.7,0.6-1.5l0.7-2.3c0-0.6,0.1-1.3,0.3-2.1
				c0.4-3.4,0.7-5.9,0.7-7.3v-1.1c0-1.5-0.2-3-0.7-4.5c0.4-0.4,1.3-0.7,2.9-0.7c2-0.4,3.3-0.7,3.6-1
				C301.9,182,302.3,181.8,302.6,181.8L302.6,181.8z M313.3,181.8c0.7,0.5,1.1,1.1,1.1,1.9c-0.1,0.7-0.4,1.1-1,1.1l-0.7,0.1h-0.1
				l-0.8-0.1l-2.2,0.3h-0.3h-0.2c-0.4,0.1-0.6,0.2-0.8,0.2h-0.2v-0.1c1.2-1.4,2.2-2.2,3-2.5C312.2,182.1,313,181.8,313.3,181.8
				L313.3,181.8z M306.3,185.2c-0.2,0-0.4,0-0.6,0.1l0,0l0.1,0.4c0.3,0.5,0.5,2.8,0.7,7c0,0.9-0.1,1.8-0.4,2.7l-1.1,3.8
				c-0.5,0.7-0.8,1.2-0.8,1.4v0.2h0.1c0.6,0,1.3-0.6,2.1-1.8l1.3-2.3c0.4-1.4,0.7-2.5,0.7-3.4V193l-0.1-0.4l0.4-0.3l2-0.3l0,0
				c0.4,0.8,0.5,1.8,0.5,3v3l0.1,2l-0.1,0.5c0.1,0.9,0.2,1.8,0.2,2.6v1.5c0,0.2,0,0.3,0.1,0.3c0,0.9,0.1,1.4,0.3,1.4
				c0.1,0,0.3,0,0.3-0.1c0.9-1.5,1.4-4.2,1.4-8.2v-0.9v-4.6l-0.1-0.1c-0.7-0.5-1.1-0.9-1.1-1.2l0.4-0.1c1.5-0.1,2.4-0.2,2.8-0.4
				c0.7-0.2,1.1-0.5,1.2-0.8v-0.1v-0.2c0-0.1-0.4-0.4-1.3-0.8c-0.6,0.3-1.2,0.6-2,0.9c-2.3,0.6-4,1.1-4.9,1.4
				c-0.2-0.1-0.4-0.6-0.4-1.4l0.1-3C307.6,185.8,306.9,185.2,306.3,185.2L306.3,185.2L306.3,185.2z M297.8,190v0.1
				c0,1,0.1,1.5,0.3,1.5h0.3c0.1,0,0.9-0.2,2.3-0.7c0.6,0,1-0.9,1.2-2.6l-0.2-0.2c-0.4,0.4-1,0.5-2,0.5c-1.2,0-1.8,0.1-1.8,0.4
				C297.9,189.3,297.8,189.6,297.8,190z"/>
		</g>
		<path id="XMLID_69_" class="st0" d="M81.3,221.5h-1l-0.2-0.8c-0.2,0.2-0.4,0.4-0.7,0.6c-0.3,0.2-0.7,0.2-1.1,0.2
			c-0.8,0-1.6-0.4-2.2-1.1c-0.6-0.8-1-2-1-3.7c0-1.8,0.3-3.2,0.9-4.1c0.6-0.9,1.4-1.4,2.4-1.4c0.9,0,1.6,0.3,2.1,1s0.8,1.5,0.8,2.6
			H80c0-0.8-0.1-1.4-0.4-1.9c-0.3-0.4-0.7-0.6-1.2-0.6c-0.6,0-1.1,0.3-1.4,1c-0.3,0.6-0.5,1.7-0.5,3.3c0,1.5,0.2,2.4,0.6,3
			c0.4,0.5,0.8,0.8,1.4,0.8c0.5,0,0.9-0.2,1.2-0.6c0.3-0.4,0.4-1,0.4-1.7v-0.6h-1.8v-1.1h3L81.3,221.5L81.3,221.5z M90.3,221.4h-1.2
			v-1.2c-0.3,0.4-0.7,0.8-1,1c-0.4,0.2-0.9,0.4-1.4,0.4c-0.7,0-1.2-0.2-1.6-0.6c-0.4-0.4-0.5-0.9-0.5-1.5v-4.7h1.2v4.2
			c0,0.5,0.1,0.8,0.4,1.1c0.2,0.3,0.5,0.4,0.9,0.4c0.5,0,1-0.3,1.4-0.8c0.5-0.5,0.7-1.2,0.7-2v-3h1.2L90.3,221.4L90.3,221.4z
			 M99.5,221.4h-1.4c-0.1-0.1-0.1-0.2-0.2-0.3c0-0.1-0.1-0.3-0.1-0.5c-0.3,0.3-0.6,0.5-1,0.7s-0.8,0.2-1.2,0.2
			c-0.6,0-1.2-0.2-1.6-0.5s-0.6-0.8-0.6-1.4c0-0.6,0.2-1.1,0.6-1.4c0.4-0.4,1-0.6,1.8-0.7c0.5-0.1,1-0.2,1.4-0.3s0.6-0.3,0.6-0.5
			s-0.1-0.5-0.3-0.7c-0.2-0.2-0.6-0.4-1.1-0.4s-0.8,0.1-1,0.3s-0.4,0.4-0.4,0.7h-1.3c0.1-0.6,0.4-1.1,0.9-1.5s1.1-0.6,1.9-0.6
			c0.9,0,1.5,0.2,1.9,0.6c0.4,0.4,0.6,0.9,0.6,1.6v3.2c0,0.2,0,0.5,0.1,0.6C99.2,221,99.3,221.2,99.5,221.4L99.5,221.4z M97.8,219.2
			V218c-0.2,0.1-0.5,0.1-0.7,0.2s-0.6,0.1-1.1,0.2c-0.6,0.1-1,0.2-1.1,0.4c-0.2,0.2-0.3,0.4-0.3,0.7c0,0.2,0.1,0.4,0.3,0.6
			c0.2,0.2,0.4,0.3,0.8,0.3s0.7-0.1,1.1-0.3C97.3,219.9,97.6,219.6,97.8,219.2L97.8,219.2z M108.3,221.4h-1.2v-4.2
			c0-0.5-0.1-0.8-0.4-1.1c-0.2-0.3-0.5-0.4-0.9-0.4c-0.5,0-1,0.3-1.4,0.8c-0.5,0.5-0.7,1.2-0.7,2v3h-1.2v-6.6h1.2v1.2
			c0.3-0.4,0.7-0.8,1-1c0.4-0.2,0.9-0.4,1.4-0.4c0.7,0,1.2,0.2,1.6,0.6c0.4,0.4,0.5,0.9,0.5,1.5L108.3,221.4L108.3,221.4z
			 M117.8,215.8c-0.3-0.1-0.5-0.1-0.8-0.1s-0.5,0-0.8,0.1c0.1,0.1,0.2,0.3,0.3,0.4c0.1,0.2,0.1,0.4,0.1,0.8c0,0.7-0.2,1.2-0.7,1.7
			c-0.5,0.4-1,0.6-1.7,0.6c-0.2,0-0.4,0-0.6-0.1c-0.3-0.1-0.5-0.1-0.6-0.2c-0.1,0.1-0.2,0.2-0.2,0.2c0,0.1-0.1,0.2-0.1,0.3
			c0,0.2,0.1,0.3,0.4,0.4c0.3,0.1,0.8,0.1,1.5,0.1c1.1,0,1.9,0.2,2.3,0.5s0.6,0.7,0.6,1.2c0,0.6-0.3,1.1-0.9,1.4
			c-0.6,0.3-1.3,0.4-2.2,0.4c-1.1,0-1.8-0.1-2.4-0.4c-0.5-0.3-0.8-0.6-0.8-1.1c0-0.2,0.1-0.5,0.3-0.7c0.2-0.2,0.4-0.4,0.8-0.6
			c-0.2-0.1-0.4-0.3-0.6-0.4c-0.1-0.2-0.2-0.4-0.2-0.7c0-0.2,0.1-0.4,0.3-0.6c0.2-0.2,0.4-0.3,0.6-0.4c-0.2-0.2-0.4-0.4-0.5-0.7
			s-0.2-0.6-0.2-0.9c0-0.7,0.2-1.2,0.7-1.6c0.5-0.4,1-0.6,1.7-0.6c0.4,0,0.7,0.1,0.9,0.1c0.3,0.1,0.5,0.2,0.7,0.4
			c0.3-0.2,0.6-0.4,0.9-0.5s0.6-0.1,1-0.1v1.1H117.8z M115.4,216.9c0-0.4-0.1-0.7-0.3-0.9c-0.2-0.2-0.5-0.4-0.9-0.4
			s-0.7,0.1-0.9,0.4c-0.2,0.2-0.3,0.6-0.3,0.9s0.1,0.7,0.3,0.9c0.2,0.2,0.5,0.4,0.9,0.4s0.7-0.1,0.9-0.4
			C115.3,217.7,115.4,217.3,115.4,216.9L115.4,216.9z M116.4,221.8c0-0.2-0.1-0.3-0.3-0.5c-0.2-0.2-0.6-0.2-1.3-0.2
			c-0.2,0-0.4,0-0.7,0c-0.3,0-0.6,0-0.9-0.1c-0.3,0.1-0.5,0.3-0.6,0.4c-0.1,0.2-0.2,0.3-0.2,0.5s0.2,0.4,0.5,0.6
			c0.3,0.2,0.9,0.2,1.7,0.2c0.7,0,1.2-0.1,1.4-0.3C116.3,222.3,116.4,222.1,116.4,221.8L116.4,221.8z M126.3,221.4h-1.2v-0.9
			c-0.2,0.4-0.5,0.6-0.8,0.8s-0.7,0.2-1.1,0.2c-0.8,0-1.5-0.3-2-0.9c-0.5-0.6-0.8-1.4-0.8-2.6c0-1.1,0.3-2,0.8-2.6s1.2-0.9,2-0.9
			c0.4,0,0.8,0.1,1.1,0.3c0.3,0.2,0.6,0.4,0.8,0.8v-4.4h1.2V221.4L126.3,221.4z M125.1,218.1c0-0.7-0.2-1.3-0.5-1.8
			c-0.3-0.4-0.7-0.6-1.2-0.6c-0.6,0-1,0.2-1.3,0.6c-0.3,0.4-0.4,1-0.4,1.8c0,0.7,0.1,1.3,0.4,1.7s0.7,0.6,1.3,0.6
			c0.5,0,0.9-0.2,1.2-0.6C124.9,219.4,125.1,218.8,125.1,218.1L125.1,218.1z M135.7,218.1c0,1-0.3,1.8-0.9,2.5
			c-0.6,0.6-1.4,0.9-2.2,0.9c-0.9,0-1.6-0.3-2.2-0.9c-0.6-0.6-0.9-1.5-0.9-2.5s0.3-1.8,0.9-2.5c0.6-0.6,1.4-0.9,2.2-0.9
			c0.9,0,1.6,0.3,2.2,0.9S135.7,217,135.7,218.1L135.7,218.1z M134.4,218.1c0-0.8-0.2-1.4-0.6-1.8c-0.4-0.4-0.8-0.6-1.3-0.6
			s-0.9,0.2-1.3,0.6c-0.4,0.4-0.6,1-0.6,1.8s0.2,1.4,0.6,1.8c0.4,0.4,0.8,0.6,1.3,0.6s0.9-0.2,1.3-0.6
			C134.2,219.4,134.4,218.9,134.4,218.1L134.4,218.1z M144.5,221.4h-1.2v-4.2c0-0.5-0.1-0.8-0.4-1.1c-0.2-0.3-0.5-0.4-0.9-0.4
			c-0.5,0-1,0.3-1.4,0.8c-0.5,0.5-0.7,1.2-0.7,2v3h-1.2v-6.6h1.2v1.2c0.3-0.4,0.7-0.8,1-1c0.4-0.2,0.9-0.4,1.4-0.4
			c0.7,0,1.2,0.2,1.6,0.6c0.4,0.4,0.5,0.9,0.5,1.5L144.5,221.4L144.5,221.4z M153.9,215.8c-0.3-0.1-0.5-0.1-0.8-0.1s-0.5,0-0.8,0.1
			c0.1,0.1,0.2,0.3,0.3,0.4c0.1,0.2,0.1,0.4,0.1,0.8c0,0.7-0.2,1.2-0.7,1.7c-0.5,0.4-1,0.6-1.7,0.6c-0.2,0-0.4,0-0.6-0.1
			c-0.3-0.1-0.5-0.1-0.6-0.2c-0.1,0.1-0.2,0.2-0.2,0.2c0,0.1-0.1,0.2-0.1,0.3c0,0.2,0.1,0.3,0.4,0.4c0.3,0.1,0.8,0.1,1.5,0.1
			c1.1,0,1.9,0.2,2.3,0.5c0.4,0.3,0.6,0.7,0.6,1.2c0,0.6-0.3,1.1-0.9,1.4c-0.6,0.3-1.3,0.4-2.2,0.4c-1.1,0-1.8-0.1-2.4-0.4
			c-0.5-0.3-0.8-0.6-0.8-1.1c0-0.2,0.1-0.5,0.3-0.7s0.4-0.4,0.8-0.6c-0.2-0.1-0.4-0.3-0.6-0.4c-0.1-0.2-0.2-0.4-0.2-0.7
			c0-0.2,0.1-0.4,0.3-0.6c0.2-0.2,0.4-0.3,0.6-0.4c-0.2-0.2-0.4-0.4-0.5-0.7s-0.2-0.6-0.2-0.9c0-0.7,0.2-1.2,0.7-1.6
			c0.5-0.4,1-0.6,1.7-0.6c0.4,0,0.7,0.1,0.9,0.1c0.3,0.1,0.5,0.2,0.7,0.4c0.3-0.2,0.6-0.4,0.9-0.5c0.3-0.1,0.6-0.1,1-0.1v1.1H153.9z
			 M151.6,216.9c0-0.4-0.1-0.7-0.3-0.9s-0.5-0.4-0.9-0.4s-0.7,0.1-0.9,0.4c-0.2,0.2-0.3,0.6-0.3,0.9s0.1,0.7,0.3,0.9
			s0.5,0.4,0.9,0.4s0.7-0.1,0.9-0.4C151.5,217.7,151.6,217.3,151.6,216.9L151.6,216.9z M152.6,221.8c0-0.2-0.1-0.3-0.3-0.5
			s-0.6-0.2-1.3-0.2c-0.2,0-0.4,0-0.6,0c-0.3,0-0.6,0-0.9-0.1c-0.3,0.1-0.5,0.3-0.6,0.4c-0.1,0.2-0.2,0.3-0.2,0.5s0.2,0.4,0.5,0.6
			c0.3,0.2,0.9,0.2,1.7,0.2c0.7,0,1.2-0.1,1.4-0.3C152.4,222.3,152.6,222.1,152.6,221.8L152.6,221.8z M169.2,211.3l-1.3,10.2h-1.2
			l-1.1-7.5h-0.1l-1.1,7.5h-1.2l-1.3-10.2h1.3l0.6,6.4h0.1l0.9-6.4h1.3l0.9,6.4h0.1l0.6-6.4H169.2L169.2,211.3z M177.9,218.1
			c0,1-0.3,1.8-0.9,2.5c-0.6,0.6-1.4,0.9-2.2,0.9c-0.9,0-1.6-0.3-2.2-0.9c-0.6-0.6-0.9-1.5-0.9-2.5s0.3-1.8,0.9-2.5
			c0.6-0.6,1.4-0.9,2.2-0.9c0.9,0,1.6,0.3,2.2,0.9C177.6,216.2,177.9,217,177.9,218.1L177.9,218.1z M176.6,218.1
			c0-0.8-0.2-1.4-0.6-1.8c-0.4-0.4-0.8-0.6-1.3-0.6s-0.9,0.2-1.3,0.6c-0.4,0.4-0.6,1-0.6,1.8s0.2,1.4,0.6,1.8
			c0.4,0.4,0.8,0.6,1.3,0.6s0.9-0.2,1.3-0.6C176.4,219.4,176.6,218.9,176.6,218.1L176.6,218.1z M186.6,221.4h-1.2v-4.2
			c0-0.5-0.1-0.8-0.4-1.1c-0.2-0.3-0.5-0.4-0.9-0.4c-0.5,0-1,0.3-1.4,0.8c-0.5,0.5-0.7,1.2-0.7,2v3h-1.2v-6.6h1.2v1.2
			c0.3-0.4,0.7-0.8,1-1c0.4-0.2,0.9-0.4,1.4-0.4c0.7,0,1.2,0.2,1.6,0.6c0.4,0.4,0.5,0.9,0.5,1.5L186.6,221.4L186.6,221.4z
			 M195.5,221.4h-1.2v-0.9c-0.2,0.4-0.5,0.6-0.8,0.8s-0.7,0.2-1.1,0.2c-0.8,0-1.5-0.3-2-0.9c-0.5-0.6-0.8-1.4-0.8-2.6
			c0-1.1,0.3-2,0.8-2.6s1.2-0.9,2-0.9c0.4,0,0.8,0.1,1.1,0.3s0.6,0.4,0.8,0.8v-4.4h1.2V221.4L195.5,221.4z M194.4,218.1
			c0-0.7-0.2-1.3-0.5-1.8c-0.3-0.4-0.7-0.6-1.2-0.6c-0.6,0-1,0.2-1.3,0.6c-0.3,0.4-0.4,1-0.4,1.8c0,0.7,0.1,1.3,0.4,1.7
			c0.3,0.4,0.7,0.6,1.3,0.6c0.5,0,0.9-0.2,1.2-0.6S194.4,218.8,194.4,218.1L194.4,218.1z M204.8,219.1c-0.1,0.7-0.4,1.3-0.9,1.7
			s-1.2,0.6-1.9,0.6c-0.9,0-1.7-0.3-2.3-0.9c-0.6-0.6-0.9-1.4-0.9-2.5s0.3-1.9,0.9-2.5c0.6-0.6,1.4-0.9,2.3-0.9c0.8,0,1.5,0.3,2,0.8
			s0.8,1.4,0.8,2.6H200c0,0.9,0.2,1.5,0.6,1.8c0.4,0.4,0.8,0.5,1.4,0.5c0.4,0,0.8-0.1,1.1-0.3s0.5-0.5,0.5-1L204.8,219.1
			L204.8,219.1z M203.4,217.1c-0.1-0.6-0.3-0.9-0.5-1.2c-0.3-0.2-0.6-0.3-1.1-0.3c-0.4,0-0.7,0.1-1.1,0.3c-0.3,0.2-0.5,0.6-0.7,1.2
			H203.4L203.4,217.1z M213,215.9c-0.7-0.1-1.4,0-1.9,0.3s-0.9,0.9-1.3,1.7v3.4h-1.2v-6.6h1.2v1.7c0.4-0.6,0.8-1.1,1.3-1.4
			c0.5-0.3,1.1-0.4,1.9-0.4V215.9L213,215.9z M229,221.4h-6.1v-10.1h1.4v8.9h4.8L229,221.4L229,221.4z M238,221.4h-1.4
			c-0.1-0.1-0.1-0.2-0.2-0.3c0-0.1-0.1-0.3-0.1-0.5c-0.3,0.3-0.6,0.5-1,0.7s-0.8,0.2-1.2,0.2c-0.6,0-1.2-0.2-1.6-0.5
			c-0.4-0.3-0.6-0.8-0.6-1.4c0-0.6,0.2-1.1,0.6-1.4c0.4-0.4,1-0.6,1.8-0.7c0.5-0.1,1-0.2,1.4-0.3s0.6-0.3,0.6-0.5s-0.1-0.5-0.3-0.7
			s-0.6-0.4-1.1-0.4s-0.8,0.1-1,0.3s-0.4,0.4-0.4,0.7h-1.3c0.1-0.6,0.4-1.1,0.9-1.5s1.1-0.6,1.9-0.6c0.9,0,1.5,0.2,1.9,0.6
			c0.4,0.4,0.6,0.9,0.6,1.6v3.2c0,0.2,0,0.5,0.1,0.6C237.7,221,237.8,221.2,238,221.4L238,221.4z M236.3,219.2V218
			c-0.2,0.1-0.5,0.1-0.7,0.2c-0.2,0.1-0.6,0.1-1.1,0.2c-0.6,0.1-1,0.2-1.1,0.4c-0.2,0.2-0.3,0.4-0.3,0.7c0,0.2,0.1,0.4,0.3,0.6
			c0.2,0.2,0.4,0.3,0.8,0.3s0.7-0.1,1.1-0.3C235.8,219.9,236.1,219.6,236.3,219.2L236.3,219.2z M247.5,214.8l-1.5,6.7h-1.1l-0.9-5.1
			h-0.1l-0.9,5.1h-1.1l-1.5-6.7h1.2l0.8,4.4h0.1l0.8-4.4h1.3l0.8,4.4h0.1l0.8-4.4H247.5L247.5,214.8z M262.2,212.4h-4.8v3.3h3.6v1.1
			h-3.6v4.5H256v-10.1h6.2V212.4L262.2,212.4z M268.6,212.9h-1.2v-1.5h1.2V212.9L268.6,212.9z M268.6,221.4h-1.2v-6.6h1.2V221.4
			L268.6,221.4z M279.2,215.9c-0.7-0.1-1.4,0-1.9,0.3s-0.9,0.9-1.3,1.7v3.4h-1.2v-6.6h1.2v1.7c0.4-0.6,0.8-1.1,1.3-1.4
			c0.5-0.3,1.1-0.4,1.9-0.4V215.9L279.2,215.9z M289.6,221.4h-1.2v-4.8c0-0.2,0-0.4-0.1-0.6c-0.1-0.2-0.2-0.2-0.5-0.2
			s-0.5,0.1-0.8,0.4c-0.2,0.3-0.4,0.7-0.4,1.1v4h-1.2v-4.8c0-0.2,0-0.4-0.1-0.6c-0.1-0.2-0.2-0.2-0.5-0.2s-0.5,0.1-0.8,0.4
			c-0.2,0.3-0.4,0.7-0.4,1.1v4h-1.2v-6.6h1.2v0.9c0.2-0.3,0.4-0.6,0.7-0.7c0.3-0.2,0.6-0.3,0.9-0.3s0.6,0.1,0.8,0.3
			c0.2,0.2,0.4,0.4,0.4,0.7c0.2-0.3,0.4-0.6,0.7-0.7c0.3-0.2,0.5-0.3,0.9-0.3c0.5,0,0.8,0.1,1.1,0.4c0.2,0.3,0.4,0.6,0.4,1.1v5.4
			H289.6z"/>
	</g>
	<g id="XMLID_66_">
		<path id="XMLID_93_" class="st1" d="M16.6,223.3c-1,0.6-3,1.4-4.2,1.5c0,0.2,0,0.2,0.2,0.3c0.1,0,0.3,0.1,0.5,0.1
			c0.4,0,1.4-0.2,1.8-0.3c1.1-0.3,2-0.6,3-1.1c1.9-0.9-0.6,0.9-0.9,1.1c-0.6,0.4-3,1.3-3.8,1.5c-0.4,0.1-0.3,0-0.7,0
			s-0.9,0.2-1.3,0.3c-0.5,0.1-0.8,0.2-1.4,0.2l0.2-0.2c-0.3,0-2.1,0.3-2.6,0.2c-0.3,0-0.5-0.2-0.8-0.2c0-0.1-0.1-0.1-0.2-0.1
			c-0.1-0.5,0.3-1,0.4-1.4V225c0-0.1-0.1-0.2-0.3-0.3c-0.4-0.2-2-0.6-2.3-0.4c0.1,0.3,0.3,0.2,0.3,0.5c-0.5,0.3-1.2,0.2-1.9,0.1
			c0.1,0.1,0.2,0.1,0.4,0.2c2.7,1-0.5,1.6-2.6,1.3c-0.8-0.1-1.4-0.1-2.2-0.4c-0.7-0.2-1.2-0.4-1.8-0.8c-0.2-0.1-0.3-0.2-0.5-0.4
			c-0.2-0.1-0.3-0.2-0.5-0.4l-1.5-1c0.1,0.2,0.6,0.5,0.8,0.7c0.2,0.1,0.8,0.5,0.9,0.7c-0.3-0.1-1.6-0.8-2-1
			c-0.2-0.1-0.4-0.3-0.7-0.4c0.5,0.8,2.4,1.6,3.2,2.1l0.2,0.1c-1-0.1-0.3,0.2-1.1-0.1c-0.1,0-0.2-0.1-0.4-0.1
			c-1-0.4-1.7-0.7-2.6-1.3c-1-0.6-1.4-0.9-2.3-1.6l-2.2-2.1c-0.2-0.2-0.5-0.6-0.7-0.7l-0.1-0.1c0-0.1,0-0.1-0.1-0.2l-0.1-0.1
			l-0.1-0.1c0-0.1,0-0.1-0.1-0.2l-0.1-0.1l-0.1-0.1v-0.1l0,0h-0.1h0.1l0.1,0.1l0.1,0.1c0,0.1,0,0.1,0.1,0.2l0.1,0.1l0.1,0.1
			c0,0.1,0,0.1,0.1,0.2l0.1,0.1c0.1,0.2,2.5,3.1,3,3.6c0.1,0.1,0.1,0.1,0.2,0.2c-0.3,0-1.2-0.4-1.5-0.7c-0.1-0.1-0.2-0.1-0.3-0.2
			c-0.5-0.4-2.3-2.1-2.3-2.2c0-0.1,0-0.1-0.1-0.2l0,0c0,0.2,0,0.1,0.1,0.2c0.1,0.3,0.8,1.2,1,1.5c-0.2,0-0.2-0.1-0.3-0.1v-0.1l0,0
			c-0.3-0.2-0.6-0.5-0.7-0.6c-0.3-0.3-1.1-1.1-1.4-1.3l-0.1-0.1v-0.1v0.1l0.1,0.1c0.1,0.2,0.9,1.2,1.1,1.4c0.2,0.2,0.6,0.7,0.8,0.8
			c0.1,0.2,0.2,0.2,0.3,0.3c0.4,0.5,2.3,2,2.4,2.1c-0.3,0-0.4,0-0.5-0.1l0,0l0,0l0,0l0,0l0,0l0,0l0,0l0,0l0,0l0,0l-0.1-0.1l0,0l0,0
			l0,0l0,0l0,0l0,0l0,0l0,0l0,0l0,0l0,0l0,0l0,0l0,0c-0.1,0-0.1-0.1-0.2-0.1l0,0l0,0l0,0l0,0l0,0l0,0l0,0l0,0l0,0l0,0l0,0l0,0l0,0
			l0,0l0,0l0,0l0,0l0,0l0,0l0,0l0,0l0,0l0,0l0,0l0,0l0,0l0,0l0,0l0,0l0,0l0,0l0,0l0,0l0,0l0,0l0,0l0,0l0,0l0,0l0,0l0,0l0,0l0,0l0,0
			l0,0l0,0l0,0l0,0l0,0l0,0l0,0l0,0l0,0l0,0l0,0l0,0l0,0l0,0l0,0l0,0l0,0l0,0l0,0l0,0l0,0l0,0l0,0l0,0l0,0l0,0l0,0l0,0l0,0l0,0l0,0
			l0,0l0,0l0,0l0,0l0,0l0,0l0,0l0,0l0,0l0,0l0,0l0,0l0,0l0,0l0,0l0,0l0,0l0,0l0,0l0,0l0,0l0,0l0,0l-0.9-0.7l0,0l0,0l-0.3-0.3
			c-0.3-0.2-0.2-0.2-0.4-0.3v-0.1h-0.1h0.1c0.1,0.3,0.2,0.1,0.3,0.4c-0.4-0.2-0.7-0.8-1.2-1.1c-0.1-0.1-0.1-0.1-0.2-0.1l-0.2-0.2
			c-0.7-0.6-0.3-0.1-1.1-1.1c-0.4-0.6-0.9-1.5-1.4-2c-0.1-0.1-0.2-0.2-0.3-0.4c-0.1-0.1-0.2-0.2-0.4-0.3c-0.2-0.2-0.1-0.2-0.5-0.2
			c0.1,0.2,0.5,0.8,0.5,1.1c0,0.1,0,0,0,0.1c0,0.2,0.1,0.2,0.1,0.3c-0.1-0.1-0.2-0.3-0.3-0.4c-0.1-0.1-0.1-0.1-0.1-0.2
			c-0.1-0.2-0.1-0.1-0.2-0.2c-0.1,0.2,0.6,1.3,0.8,1.5c0.3,0.4,1.6,1.9,2,2.3l1.6,1.5c-0.2,0-0.7-0.6-0.9-0.7c-1.2-1.2-2-2-3.1-3.4
			l-1.3-1.9c-0.2-0.2-0.5-0.8-0.7-1v-0.1h-0.1h0.1c0.1,0.2,0.3,0.7,0.4,0.9c0.8,1.5,2.5,3.8,3.7,5.1c0.1,0.1,0.3,0.3,0.3,0.4
			c-0.7-0.5-2.6-2.9-3.1-3.7c-1.1-1.7-2-3.6-2.8-5.4l-0.2-0.4h-0.1l-0.9-3.4c-0.1-0.5-0.4-2.2-0.5-2.8c0-0.3,0-0.7-0.1-1
			c-0.2-1,0-3.2,0.1-4.1c0.3-2.5,0.9-4.7,1.8-6.9l0.5-1.1c1-2,2.3-3.9,3.8-5.6l1.1-1.2l0.1-0.1l-0.1,0.1c-0.2,0.1-1.8,1.6-2.1,1.9
			c-0.1,0.2-0.1,0.2-0.3,0.3c0.1-0.5,1.5-2.2,1.8-2.6l1.5-1.5c0.3-0.3,0.5-0.5,0.8-0.7l0.8-0.7c0.2-0.1,0.2-0.2,0.4-0.3
			s0.3-0.2,0.4-0.4h0.1v-0.1v0.1c-0.2,0-1,0.5-1.2,0.7l-1.6,1.2c-0.2,0.2-0.4,0.3-0.5,0.4l-1,0.9c0.1-0.2,0.3-0.4,0.5-0.5
			c0.2-0.2,0.3-0.4,0.5-0.5l-0.1-0.1c0.2-0.2,1.9-1.6,2.2-1.8c1-0.7,1.4-1,2.5-1.5c0.4-0.2,0.4-0.2,0.8-0.5c0.9-0.8,2.9-2,4.1-2.6
			c1.1-0.5,2.2-0.9,3.4-1.2l0,0l0,0l0,0l0,0l0,0l0,0l0,0l0,0l0,0l0,0l0,0l0,0l0,0l0,0l0,0l0,0l0,0l0,0l0,0l0,0l0,0l0,0l0,0l0,0l0,0
			l0,0l0,0l0,0l0,0l0,0l0,0l0,0l0,0l0,0l0,0l0,0l0,0l0,0l0,0l0,0l0,0l0,0l0,0l0,0l0,0l0,0l0,0l0,0l0,0l0,0l0,0l0,0l0,0l0,0l0,0l0,0
			l0,0l0,0l0,0l0,0l0,0l0,0c1.3-0.2,2.6-0.3,4.8-0.3v-0.1c-0.4,0-0.6-0.1-1-0.1c-3,0-3.9,0.2-6.9,0.9c-0.9,0.2-1.5,0.4-2.2,0.6h0.1
			c-0.2,0-0.6,0.2-0.8,0.2l0,0l0,0l0,0l0,0l0,0l0,0l0,0l0,0l0,0l0,0l0,0l0,0l0,0l0,0l0,0l0,0l0,0l0,0l0,0l0,0l0,0l0,0l0,0l0,0l0,0
			l0,0l0,0l0,0l0,0l0,0l0,0l0,0l0,0l0,0l0,0l0,0l0,0l0,0l0,0l0,0l0,0l0,0l0,0l0,0l0,0l0,0l0,0l0,0l0,0l0,0l0,0l0,0l0,0l0,0l0,0l0,0
			l0,0l0,0l0,0l0,0l0,0l0,0l0,0l0,0l0,0l0,0l0,0l0,0l0,0l0,0l0,0l0,0l0,0l0,0l0,0l0,0c-0.1,0.1-1.3,0.5-1.5,0.5l0.3-0.3l0,0l0,0l0,0
			l2.2-1.4c0.1-0.1,0.3-0.1,0.4-0.3c-0.5-0.3-0.7-0.2-1.3,0c-1.6,0.5-2.7,1-4.1,1.8l-1.5,1c-0.2,0.2-1.7,1.3-1.9,1.5l0.4,0.1
			c-0.9,0.6-0.7,0.1-1.8,1.6l-1.4,1.5c-0.1,0.1-0.2,0.2-0.3,0.3l-3.9,6.5c-0.1,0.3-0.3,0.5-0.4,0.8l-0.1,0.1h-0.1v0.1v-0.1l0.1-0.1
			c0.2-0.2,0.2-0.5,0.4-0.6c0,0.5-1.2,3.4-1.5,4.2l-0.9,2.9l0,0l0,0l0,0l0,0l0,0l0,0l0,0l0,0l0,0l0,0l0,0l0,0l0,0l0,0l0,0l0,0l0,0
			l0,0l0,0l0,0l0,0l0,0l0,0l0,0l0,0l0,0l0,0l0,0l0,0l0,0l0,0l0,0l0,0l0,0l0,0l0,0l0,0l0,0l0,0l0,0l0,0l0,0l0,0l0,0l0,0l0,0l0,0l0,0
			l0,0l0,0l0,0l0,0l0,0l0,0l0,0l0,0l0,0l0,0l0,0l0,0l0,0l0,0l0,0l0,0l0,0l0,0l0,0l0,0l0,0l0,0l0,0l0,0l0,0l0,0l0,0l0,0
			c0-0.1,0-0.2,0-0.3l0.4-2.4l0.8-3c0.1-0.3,0.2-0.4,0.2-0.7l0.2-0.7c0.3-0.9,1-2.4,1.4-3.3l0.7-1.2c0.1-0.2,0.2-0.4,0.4-0.6
			c0.9-1.2,1-1.5,2-2.7l4.1-4.5c-0.3,0.1-1.8,1.4-2.1,1.7c-1.9,1.8-3.8,4-5,6.3c-0.6,1.1-0.7,1.3-1.2,2.5c-0.4,0.9-0.7,1.8-1,2.8
			s-0.5,1.9-0.8,3c-0.3,1.2-0.4,2-0.4,3.3c0,0,0,0,0.1-0.1l0,0l0,0l0,0l0,0l0,0l0,0l0,0l0,0l0,0l0,0l0,0l0,0l0,0l0,0l0,0l0,0l0,0
			l0,0l0,0l0,0l0,0l0,0l0,0l0,0l0,0l0,0l0,0l0,0l0,0l0,0l0,0l0,0l0,0l0,0l0,0l0,0l0,0l0,0l0,0l0,0l0,0l0,0l0,0l0,0l0,0l0,0l0,0l0,0
			l0,0l0,0l0,0l0,0l0,0l0,0l0,0l0,0l0,0l0,0l0,0l0,0l0,0l0,0l0,0l0,0l0,0l0,0l0,0l0,0l0,0l0,0l0,0l0,0l0,0l0,0l0,0l0,0l0,0l0,0l0,0
			l0,0l0,0l0,0l0,0l0,0l0,0l0,0l0,0l0,0l0,0l0,0l0,0l0,0l-0.3,2.5c0,0.3-0.1,0.4-0.1,0.7s0,0.4-0.1,0.6v2.8c0,0.1,0,0.3,0,0.3
			c0.1,0.5,0.1,0.8,0.1,1.3c0,0.9,0.2,1.9,0.4,2.7l0.6,2.5l-0.1-0.1c0-0.2,0-0.1-0.1-0.2v-0.1h-0.1h0.1c0,0.2,0,0.1,0.1,0.2
			c0,0.3,0.6,1.5,0.7,1.9c0.1,0.2,0.7,1.6,0.9,1.8c-0.1,0.3,0-0.2-0.1,0.2l0,0c0,0.2,1.5,2.6,1.8,3c0.7,1,1.1,1.5,1.8,2.4
			c0.1,0.1,0.2,0.2,0.3,0.3c-0.5,0.2,0.7,1.1,1,1.4c0.2,0.2,0.4,0.4,0.7,0.7l0.7,0.6c0.3,0.2,0.5,0.4,0.7,0.6
			c0.3,0.2,0.5,0.4,0.8,0.6l2.7,1.9c0.2,0.1,0.1,0,0.4,0.2l0.1,0.1h0.1l0,0c0.1,0.1,0.2,0.1,0.3,0.2l0,0l0,0l0.1,0.1l0.1,0.1l0,0
			l0.1,0.1h0.1l0,0l0.1,0.1l0,0l0,0l0.1,0.1l0,0l0,0l0,0l0.1,0.1l0,0l0,0l0.1,0.1l0,0h0.1l0.1,0.1l0,0l0.1,0.1h0.1l0,0l0.1,0.1h0.1
			h0.1l0.1,0.1l0,0h0.1l0,0h0.1l0.1,0.1l0.1,0.1l0.1,0.1l0,0h0.1l0.1,0.1l0,0h0.1h0.1l0,0l0.1,0.1h0.1h0.1h0.1l0,0h0.1h0.1l0,0h0.1
			h0.1H-9h0.1l0,0h0.1h0.1l0,0h0.1h0.1l0,0h0.1l0,0h0.1h0.1l0,0h0.1H-8l0,0h0.1h0.1h0.1h0.1l0,0h0.1c0.1,0,0.3,0.1,0.4,0.1H-7h0.1
			h0.1l0,0l0.3,0.1l0,0h0.1l0,0h0.1h0.1h0.1l0,0H-6l0,0h0.1c0.1,0.1-0.1,0.1,0.2,0.1l0.1,0.1l0.1,0.1l0.1,0.1l0.1,0.1l-0.1-0.1
			l-0.1-0.1l-0.1-0.1l-0.1-0.1l0,0h0.1h0.1l0,0h0.1h0.1h0.1h0.1H-5l0,0h0.1h0.1h0.1h0.1h0.1h0.1h0.1l0,0h0.1h0.1H-4h0.1h0.1l0,0h0.1
			h0.1h0.1l0,0h0.1h0.1l0,0h0.1h0.1l0,0H-3h0.1h0.1l0,0h0.1h0.1h0.1h0.1h0.1l0,0h0.1h0.1H-2l0,0h0.1h0.1l0,0h0.1h0.1h0.1l0,0h0.1
			h0.1l0,0h0.1h0.1H-1l0,0h0.1h0.1l0,0h0.1h0.1h0.1l0,0h0.1h0.1l0,0h0.1h0.1H0l0,0h0.2l0,0l0,0h0.1h0.1l0,0l0,0h0.2h1.8
			c0.6,0,1.2-0.1,1.8-0.1c0.9-0.1,1.6-0.2,2.4-0.3c1.3-0.2,2.1-0.5,3.3-0.8l1-0.4l0,0c0.3,0,0.1,0,0.2-0.1c0.3,0,1.6-0.4,2-0.5
			c0.3-0.1,0.6-0.2,0.9-0.3c1.5-0.6,3.9-1.9,6.6-3.5c2.6-1.6,2.9-1.7,5.7-3.6l-2.1-3.3c-2.1,1.1-1.8,0.7-4.4,2.2
			C18,222.5,17.3,222.9,16.6,223.3L16.6,223.3z M-22.6,212.6v0.2l0,0l0,0C-22.7,212.7-22.7,212.7-22.6,212.6L-22.6,212.6
			L-22.6,212.6z M9.9,231.3l-2.6,0.5c-2.6,0.5-6.1,0.7-8.7,0.4c-3.4-0.4-5.6-1-8.6-2.3c-0.3-0.1-0.9-0.3-1-0.5l2.3,0.8
			c2.7,0.8,4.4,1.5,7.6,1.8c2.1,0.2,3.9,0.2,6,0c1.8-0.1,3.1-0.4,4.7-0.7c0.3,0,0.5-0.1,0.7-0.1l-0.2,0.1
			C9.8,231.2,10,231.2,9.9,231.3L9.9,231.3z M-16.9,186.4L-16.9,186.4L-16.9,186.4L-16.9,186.4z M-16.8,186.4L-16.8,186.4
			L-16.8,186.4L-16.8,186.4z M-16.7,186.3L-16.7,186.3L-16.7,186.3L-16.7,186.3z M-16.7,186.3L-16.7,186.3l0.1-0.1v0.1H-16.7
			L-16.7,186.3L-16.7,186.3z M-6.5,232.1L-6.5,232.1L-6.5,232.1L-6.5,232.1L-6.5,232.1L-6.5,232.1z M-9.5,224.5
			c-0.1-0.1-0.4-0.3-0.6-0.4c-0.1-0.1-0.2-0.1-0.3-0.2c-0.1-0.1-0.2-0.1-0.3-0.2l0,0c0,0,0,0,0.1,0h0.1c0.1,0.1,0.2,0.2,0.4,0.2
			l0.1,0.1c0.2,0.2,0.8,0.5,0.9,0.6c0.2,0.1,0.3,0.2,0.5,0.3s0.4,0.2,0.5,0.3c-0.3-0.1-0.9-0.4-1.2-0.6
			C-9.3,224.5-9.4,224.5-9.5,224.5L-9.5,224.5z M-13.1,221.6L-13.1,221.6L-13.1,221.6L-13.1,221.6L-13.1,221.6z M-4.3,179L-4.3,179
			c0.5-0.1,2.4-0.4,2.7-0.4c-0.2,0.2-0.6,0.2-0.9,0.2c-0.1,0,0,0-0.1,0c0.2,0.1,0.1,0.1-0.1,0.1c-0.5,0.2-1.7,0.5-2.2,0.5h0.1
			c0.2-0.1,0.4-0.1,0.5-0.2c-0.6,0-1.1,0.2-1.6,0.2l1.2-0.3c0-0.1,0,0,0-0.1c0,0,0,0,0-0.1h0.2c0.1,0,0,0,0.1,0
			C-4.4,179-4.3,179-4.3,179L-4.3,179z M11.9,174c0.1-0.1,0-0.1,0.1,0H11.9L11.9,174z M12,174L12,174l0.2,0.1
			C12.1,174,12.3,174,12,174L12,174z M12.2,174.1l0.1,0.1L12.2,174.1L12.2,174.1L12.2,174.1z M12.3,174.1L12.3,174.1l0.1,0.1h0.2
			C12.4,174.1,12.5,174.1,12.3,174.1L12.3,174.1z M12.5,174.2c0.2,0,0.4,0.1,0.5,0.2h-0.1c-0.1-0.1,0.1-0.1-0.2-0.1L12.5,174.2
			L12.5,174.2L12.5,174.2L12.5,174.2z M13,174.5l-0.1-0.1c-0.3,0-0.1,0-0.2-0.1l-0.1-0.1l-0.1-0.1c-0.3,0-0.1,0-0.2-0.1l-0.1-0.1
			l-0.1-0.1c-0.3,0-0.1,0-0.2-0.1l-0.1-0.1c-0.3-0.1,0,0-0.1-0.1c0,0,0,0-0.1-0.1c-0.4-0.2-1.9-0.5-2-0.6c-0.9-0.4-2-0.6-3-0.7
			c-1.2-0.2-2-0.2-3.1-0.3c-0.4,0-0.5,0-0.8,0l-1.6,0.1c-0.3,0-0.5,0.1-0.8,0.1v-0.1c0.3,0,0.4,0,0.7-0.1c0.2,0,0.4,0,0.6-0.1
			c0.4-0.1,0.8-0.1,1.2-0.1H0.3c-0.3,0-0.6,0.1-0.8,0.1l0.2-0.1c0.2-0.1,0.5-0.1,0.8-0.1h1.6l0,0c4.7,0,8.8,1.1,13,3.1
			c0.2,0.1,0.3,0.1,0.5,0.2c0.2,0.1,0.3,0.2,0.5,0.2c0.3,0.2,0.6,0.3,0.9,0.5c0.2,0.1,0.8,0.4,0.9,0.5l0.1,0.1l0.1,0.1h0.1h-0.1
			v-0.1L18,176l-0.1-0.1c-0.2,0-0.4-0.2-0.6-0.3c-0.7-0.4-2.2-1-3-1.3l-1.1-0.4c-0.1,0-0.1,0-0.1-0.1
			C12.9,174.5,13.1,174.5,13,174.5L13,174.5z M8.4,177.4L8,177.3c-1.3-0.3-4.6-0.8-5.9-0.8v-0.1c3,0,5.5,0.6,8.1,1.4
			c0.2,0.1,0.8,0.2,0.9,0.4c-0.5-0.1-1-0.3-1.5-0.4c-1.2-0.2-3.8-0.6-5-0.6l0.1,0.1c-0.4,0-1,0.1-1.3,0.2c-0.1,0.1,0,0-0.1,0
			c-0.3,0.1-0.6,0-0.9,0c-0.9,0-1.6,0-2.5,0.1l-4.5,0.7h-0.1h0.1c0.2-0.1,0.8-0.3,1-0.3c3.1-0.8,4.8-0.8,8.2-0.8
			c-0.1-0.1-0.3,0-0.5-0.1c-0.2,0-0.2,0-0.4-0.1c-0.3,0-0.7,0-1,0s-0.5-0.1-0.9-0.1l-4.7,0.3l0,0l0,0c0.2-0.1-0.1,0,0.1,0
			c0.1,0,0.1,0,0.2,0c2.4-0.5,2.7-0.4,5.3-0.4C4.5,176.8,8,177.4,8.4,177.4L8.4,177.4z M30.5,196.5v-0.2c-0.1,0,0.1,0,0,0
			c-0.1,0.1,0.1,0.1-0.1,0v-0.2c0.1-0.1,0.1,0.1,0.1-0.2h-0.1v0.2l0,0l0,0c0-0.1,0-0.1,0-0.1c0.1-0.1,0.1-0.1,0-0.2v-0.1
			c0-0.1,0-0.1-0.1-0.1v-0.2c-0.1,0.1-0.1,0.1-0.1,0l0,0l-0.1-0.2c-0.4-1.4-0.5-1.6-1-3.1c-0.1-0.2-0.1-0.4-0.3-0.6
			c-0.1-0.2-0.1-0.4-0.3-0.6l-0.1-0.1v-0.1v0.1l0.1,0.1l0.5,1.3c0.2,0.4,0.4,1,0.5,1.4c0.3,1,0.6,1.8,0.8,2.9c0.5,2.7,0.2,3.3,0.5,5
			c0,0.3,0.2,1.3,0.3,1.5c0-2.1,0.2-2.8-0.2-5.1c0-0.3-0.1-0.5-0.1-0.8L30.5,196.5L30.5,196.5L30.5,196.5z M30.3,196
			C30.3,196,30.3,195.9,30.3,196C30.3,196,30.3,195.9,30.3,196c0-0.2,0-0.1,0-0.2V196L30.3,196z M-17.5,178.7
			c-0.1,0.1-0.2,0.2-0.3,0.3l-0.1,0.1l-0.1,0.1l-0.1,0.1v0.1v-0.1h0.1l0.1-0.1l0.1-0.1l0.1-0.1C-17.8,178.8-17.7,178.8-17.5,178.7
			c0.1-0.2,0.8-0.7,1-0.9c1.7-1.2,3.4-2.4,5.3-3.3c0.2-0.1,0.4-0.2,0.6-0.3c1.1-0.5,1.9-0.8,2.7-1.1c0,0.1,0,0.1,0.1,0.3
			c-0.4,0.2-0.9,0.3-1.4,0.5l-2.6,1.2c-0.5,0.2-3.3,1.8-3.6,2.1l-1.9,1.4C-17.4,178.7-17.3,178.7-17.5,178.7L-17.5,178.7z
			 M-11.2,183.1h-0.1H-11.2c0.3-0.4,3.1-1.7,4.2-2.1c0.4-0.1,1.3-0.5,1.6-0.5c0.1-0.1-0.1-0.1,0.2-0.1c0.1-0.1-0.1-0.1,0.2-0.1
			c0.1-0.1-0.1-0.1,0.2-0.1v0.1H-5c-0.1,0.1,0.1,0.1-0.2,0.1c-0.1,0.1,0.1,0.1-0.2,0.1c-0.1,0.1-0.2,0.1-0.4,0.2L-11.2,183.1
			L-11.2,183.1z M0.4,177.7L0.4,177.7c0.6-0.1,1.3-0.1,1.9-0.1c0.7,0,1,0,1.4,0.3c0.1,0,0.1,0.1,0.1,0.1c-0.6,0-1.7-0.2-2.6-0.2
			l0.7-0.1c-0.3,0-0.5,0-0.8,0S0.7,177.7,0.4,177.7L0.4,177.7z M2.6,178.2L2.6,178.2l1.1-0.1v0.1H2.6L2.6,178.2z M-10.2,174.6
			c0.2,0,2.2-0.9,2.7-1.1l0.4-0.2H-7v-0.1v0.1c-0.3,0-0.6,0.1-0.9,0.2c-0.3,0.1-0.5,0.2-0.8,0.3L-10.2,174.6l-0.1,0.1l-0.1,0.1
			l-0.1,0.1l-0.1,0.1h-0.1v0.1V175l0.1-0.1l0.1-0.1l0.1-0.1L-10.2,174.6L-10.2,174.6z M-17.8,215.5c-0.1-0.1-0.1,0.1-0.1-0.2h0.1
			V215.5l0.7,1.2c-0.1-0.1-0.4-0.4-0.4-0.5C-17.6,216.1-17.8,215.7-17.8,215.5L-17.8,215.5z M-0.4,180L-0.4,180H0v0.1h-0.4V180z
			 M-22.8,201c0,0.1,0,0.2,0,0.2c0,0.1,0,0.1-0.1,0.1c0,0,0,0.1,0,0.2c0,0.1,0,0.1-0.1,0.1c0,0,0,0.1,0,0.2c0,0.1,0,0.1-0.1,0.1v0.3
			h0.1c0,0,0-0.1,0-0.2c0-0.1,0-0.1,0.1-0.1c0,0,0-0.1,0-0.2c0-0.1,0-0.1,0.1-0.1c0,0,0-0.1,0-0.2c0-0.1,0-0.1,0.1-0.1
			c0-0.1,0-0.2,0-0.2C-22.8,201-22.8,201.1-22.8,201c0-0.3,0.1-0.4,0.1-0.7v0.6C-22.7,201-22.7,201-22.8,201L-22.8,201z M-23,202.4
			v-0.3h0.1L-23,202.4L-23,202.4L-23,202.4z M-23.1,202.7v-0.2h0.1L-23.1,202.7L-23.1,202.7L-23.1,202.7z M-5.4,181.9L-5.4,181.9
			l0.2-0.1v0.1H-5.4L-5.4,181.9z M-5.2,181.8L-5.2,181.8l0.2-0.1v0.1H-5.2L-5.2,181.8z M-5.7,181.9c-0.1,0.1,0.1,0.1-0.2,0.1v-0.1
			H-5.7c0.1-0.1-0.1-0.1,0.2-0.1v0.1H-5.7L-5.7,181.9z M-6.2,182.1L-6.2,182.1L-6.2,182.1C-6.1,182-6.3,182-6,182v0.1H-6.2
			L-6.2,182.1z M-4.6,232.9l0.1,0.1L-4.6,232.9c-0.3,0-0.1,0-0.2-0.1l-0.1-0.1c-0.3,0-0.1,0-0.2-0.1l-0.1-0.1c-0.3,0-0.1,0-0.2-0.1
			l-0.1-0.1l-0.1-0.1l0.1,0.1l0.1,0.1c0.3,0,0.1,0,0.2,0.1l0.1,0.1c0.3,0,0.1,0,0.2,0.1l0.1,0.1C-4.5,232.8-4.6,232.8-4.6,232.9
			L-4.6,232.9z M-6,182C-6.1,182-5.9,182-6,182C-5.8,182-5.9,182.1-6,182L-6,182z M25.5,186.9L25.5,186.9L25.5,186.9L25.5,186.9
			l0.1,0.1l0.1,0.1l0.1,0.1l0.1,0.1l0.1,0.1l0.1,0.1l0.1,0.1l0.1,0.1l0.1,0.1l0.1,0.1l0.1,0.1l0.1,0.1l0.1,0.1l0.1,0.1l0.1,0.1
			l0.1,0.1l0.1,0.1l0.1,0.1v0.1h0.1h-0.1l-0.1-0.1l-0.1-0.1l-0.1-0.1l-0.1-0.1l-0.1-0.1l-0.1-0.1l-0.1-0.1l-0.1-0.1l-0.1-0.1
			l-0.1-0.1l-0.1-0.1l-0.1-0.1l-0.1-0.1l-0.1-0.1l-0.1-0.1l-0.1-0.1l-0.1-0.1L25.5,186.9L25.5,186.9z M-5.8,232.4l-0.1-0.1
			L-5.8,232.4l0.1,0.1l0.1,0.1l-0.1-0.1L-5.8,232.4L-5.8,232.4z M-4.3,233l-0.1-0.1L-4.3,233L-4.3,233L-4.3,233z"/>
		<path id="XMLID_82_" class="st1" d="M-11.8,194.2c0.3-0.3,0.5-0.5,0.7-0.5c0.2-0.1,0.6,0,1.1,0c0.3,0.1,0.4,0.6,0.3,1.5
			c-0.1,1-0.3,1.8-0.7,2.6l-0.5,0.8l0.9,0.4c0.6,0.3,0.9,0.6,1,0.9c0.1,1,0,1.5-0.2,1.7c-0.4,0.4-1.6,1.7-3.5,4.1
			c-0.3,0.3-0.5,1.1-0.5,2.2l-0.1,1.7l1-1.1c1.3-1.5,2.3-3,3.2-4.2c0.8-1.3,1.8-3,3-5.3c0.3-0.5,0.4-0.7,0.5-0.7s0,0.5-0.5,1.4
			c-0.3,0.6-0.4,0.9-0.3,0.9c0.3,0.1-0.3,1.3-1.7,3.7c-0.4,0.8-0.9,1.8-1.3,2.9c-0.2,0.4-0.4,1-0.8,1.6c-0.4,0.7-0.6,1-0.7,1.1
			c-0.1,0.1-0.2,0.3-0.2,0.7s-0.1,0.8-0.4,1.3c-0.3,0.5-0.4,0.8-0.4,1s-0.2,0.6-0.7,1.2c-0.5,0.6-0.8,0.9-1,1
			c-0.4,0.2-0.7,0.1-1.1-0.1c-0.3-0.3-0.6-0.7-0.9-1.3c-0.2-0.4-0.3-0.8-0.4-1c-0.1-0.3,0.1-0.9,0.6-1.8c0.5-1,0.9-1.6,1.1-2.1
			c0.2-0.4,0.4-0.7,0.5-0.9s0.3-0.5,0.4-0.9v-0.4c0,0-0.1,0.1-0.1,0.2c-0.1,0.2-0.3,0.5-0.5,0.7s-0.5,0.6-0.7,1
			c-0.2,0.5-0.6,0.8-1.1,1l-0.8,0.3l-0.3-0.4c-0.2-0.3-0.4-0.8-0.5-1.4l-0.1-1l1.6-1.6c1-0.9,1.8-1.8,2.5-2.6s1-1.2,1-1.3
			c-0.1-0.2-0.7,0.2-1.7,1.2c-0.3,0.3-0.6,0.5-0.7,0.5c-0.1,0-0.3-0.1-0.5-0.2c-0.3-0.2-0.4-0.7-0.5-1.4l-0.1-1.1l0.8-0.6
			c1.3-1.1,2.3-2.1,3-3.2c0.6-1.1,0.8-1.7,0.6-2c-0.1-0.2-0.4-0.1-0.8,0.3c-0.2,0.2-0.3,0.3-0.3,0.2
			C-12.5,195.1-12.3,194.8-11.8,194.2L-11.8,194.2z M1,178.3c-0.3,0.7-0.5,1.3-0.6,1.6c0,0.2-0.2,0.7-0.5,1.6l-0.4,1.3l-1,0.2
			c-0.5,0.1-1.3,0.1-2.2,0.1s-1.7-0.1-2.2-0.3c-0.4-0.1-0.8-0.4-1.1-0.7c-0.3-0.4-0.6-0.5-0.8-0.5c-0.2,0-0.4,0.1-0.4,0.1
			c-0.1,0-0.3,0.3-0.7,0.9c-0.3,0.6-0.5,1.1-0.6,1.6s-0.2,0.9-0.3,1s-0.3,0.2-0.7,0.3s-0.7,0.1-0.9,0.2c-0.3,0.1-0.6,0-0.9-0.2
			c-0.3-0.2-0.4-0.4-0.4-0.6c0-0.2-0.1-0.3-0.4-0.4c-0.3-0.1-0.5,0-0.7,0.2c-0.2,0.1-0.2,0.4-0.3,0.9c0,0.5,0.1,0.9,0.2,1.3
			c0.2,0.4,0.4,0.8,0.9,1.2c0.3,0.3,0.6,0.5,0.8,0.5c0.2,0.1,0.7,0.1,1.5,0.1c0.7,0,1.2,0,1.4,0S-9,188.8-9,189
			c0.1,0.3,0.3,0.7,0.8,1.3s0.8,1,1,1c0.2,0.1,0.5,0,0.7-0.1c0.3-0.1,0.5-0.3,0.7-0.5s0.4-0.6,0.6-1.1s0.3-0.8,0.3-0.9
			c0-0.2,0.2-0.6,0.5-1.4c0.2-0.6,0.4-0.9,0.5-1s0.4-0.3,0.9-0.4c0.6-0.2,1-0.3,1.2-0.3c0.1,0,0,0.2-0.2,0.7s-0.5,1-0.9,1.6
			s-0.8,1.1-1.1,1.5c-0.5,0.6-0.8,1-1.1,1.4c-0.2,0.3-0.4,0.6-0.6,0.7c-0.2,0.1-0.3,0.2-0.2,0.3c0.1,0.1,0.3,0.1,0.5-0.1
			c0.7-0.4,1.1-0.5,1.1-0.5c0.1,0,0.1,0.4,0.1,1.2s0,1.4,0.1,1.8c0.1,0.2,0.1,0.4,0.1,0.5s-0.1,0.1-0.1,0.1c-0.1,0-0.1,0.1-0.1,0.4
			c0,0.1,0,0.1,0,0.2c0,0.2,0,0.2-0.1,0.1c-0.1-0.2-0.2-0.2-0.3,0c-0.4,0.9-0.6,1.5-0.7,1.8s-0.1,0.3,0.1,0.2
			c0.2-0.2,0.3-0.3,0.3-0.1c0,0.1,0.1,0.5,0.4,1.2c0.8,1.8,1.2,3,1.1,3.7c-0.1,0.5,0,0.8,0.1,0.9c0.1,0.2-0.2,0.7-1.1,1.6
			c-0.9,0.9-1.5,1.7-1.8,2.2s-0.6,1-0.9,1.4c-0.3,0.3-0.4,0.6-0.4,0.9s0.1,1,0.4,1.9c0.1,0.5,0.2,0.9,0.1,0.9
			c-0.1,0.1-0.4,0.1-1,0.1c-0.4,0-0.7,0-0.8,0c-0.1,0.1-0.3,0.2-0.4,0.3c-0.2,0.3-0.2,0.5-0.2,0.8c0.1,0.2,0.2,0.4,0.5,0.5
			s1,0.1,1.9,0.1s1.8-0.1,2.6-0.3c1.1-0.2,1.9-0.4,2.6-0.5s1.5-0.2,2.4-0.4c1.2-0.3,2.9-0.4,4.8-0.5c2-0.1,3.4,0,4.1,0.2
			c0.5,0.1,0.9,0.4,1.3,0.7c0.4,0.4,0.6,0.5,0.6,0.5h0.1c0.1,0,0.1,0,0.3,0c0.1,0,0.3,0,0.4,0.1c0.5,0.1,1,0.1,1.3-0.1
			c0.3-0.2,0.5-0.5,0.5-0.9c0-0.2-0.2-0.5-0.7-0.9s-0.8-0.6-1.1-0.6s-0.6-0.1-0.8-0.2c-0.2-0.1-0.6-0.3-1.1-0.5
			c-0.6-0.2-1-0.4-1.2-0.5c-0.3-0.1-0.6-0.2-1.1-0.1c-0.4,0.1-0.6,0.1-0.6,0s0.1-0.3,0.4-0.7c0.3-0.5,0.7-1.1,1-2
			c0.4-0.8,0.6-1.5,0.6-1.9s0-0.7,0-0.8c0-0.2-0.2-0.4-0.4-0.7c-0.4-0.4-0.9-0.8-1.5-1.1l-1-0.5l-1.4,0.3c-0.9,0.2-1.7,0.5-2.4,0.8
			s-1.2,0.5-1.3,0.5c-0.1,0-0.5,0.1-1.1,0.4c-0.6,0.3-1,0.3-1.1,0.2c-0.1-0.2,0-0.4,0.4-0.8c0.1-0.1,0.1-0.1,0.2-0.2
			c0.7-0.6,1.1-0.7,1.1-0.4c0,0.1,0.1,0.1,0.3,0.2c0.2,0,0.5,0,0.7,0c0.3,0,0.4-0.1,0.5-0.2c2.1-1.8,3.3-4.2,3.4-7.2
			c0-0.5,0-0.8,0-1c-0.1-0.2-0.2-0.5-0.5-0.9c-1.3-1.8-3.5-2-6.5-0.4c-0.5,0.3-0.9,0.4-1,0.3c-0.2-0.1-0.3-0.4-0.4-1
			c-0.1-0.6-0.2-1.1-0.4-1.5c-0.1-0.3-0.2-0.6-0.1-0.8c0.1-0.2,0.2-0.3,0.4-0.3s0.5-0.1,1-0.4c0.5-0.3,0.8-0.4,0.8-0.5
			s0.2-0.2,0.6-0.3s0.9-0.5,1.4-1.1c0.6-0.6,1-1.3,1.3-1.9c0.3-0.6,0.6-1,0.9-1.2c0.3-0.1,1-0.2,1.9-0.2c0.6,0,0.9,0,1.1-0.1
			s0.3-0.3,0.3-0.6c0-0.5-0.7-1-2.1-1.5c-0.5-0.2-0.8-0.3-0.9-0.4c-0.1-0.1-0.1-0.3-0.1-0.7c0-1.2-0.4-2.2-1.1-2.9
			C1.9,177.6,1.3,177.6,1,178.3L1,178.3z M-4.4,183.8c0,0.1-0.3,0.2-0.9,0.4c-0.6,0.1-1.1,0.1-1.4,0c-0.2-0.1-0.4-0.3-0.4-0.5
			c-0.1-0.2,0-0.3,0.1-0.4c0.1-0.1,0.3-0.1,0.6,0c0.2,0.1,0.6,0.1,1.2,0.3C-4.7,183.6-4.4,183.7-4.4,183.8L-4.4,183.8z M3.6,194.1
			c0,0.6-0.1,1-0.2,1.2c-0.1,0.3-0.3,0.4-0.5,0.3c-0.5-0.1-1.7,0.2-3.5,0.9l-1,0.5l-0.1-0.5c-0.1-0.3-0.1-0.6,0-0.9
			c0.1-0.3,0.1-0.4,0.2-0.4s0.4-0.2,0.9-0.5c1.3-0.9,2.4-1.4,3.3-1.4h1L3.6,194.1L3.6,194.1z M0.6,198.5c-0.4,0.4-0.7,0.6-0.8,0.7
			c-0.1,0.1-0.3,0.1-0.6,0s-0.5-0.3-0.6-0.5c0-0.2,0-0.3,0.1-0.4c0.1-0.1,0.4-0.2,0.7-0.3c1.1-0.4,1.7-0.5,1.9-0.3c0,0,0,0-0.1,0.1
			S1,198,0.9,198.1C1,198.2,0.8,198.3,0.6,198.5L0.6,198.5z M7,203.5c0.1,0.1,0.1,0.2,0.1,0.6c-0.1,0.3-0.2,0.7-0.4,1.2
			c-0.2,0.5-0.5,0.9-0.7,1.1c-0.3,0.3-0.4,0.5-0.4,0.7s-0.3,0.5-0.8,1c-0.6,0.5-0.9,0.8-1.1,0.8c-0.1,0-0.1,0-0.2,0
			c-0.2,0,0-0.3,0.3-0.7c0.3-0.3,0.5-0.9,0.5-1.8c0.1-0.8,0.1-1.4,0.1-1.8c0-0.4,0.1-0.6,0.3-0.6c0.2,0,0.5-0.1,0.8-0.2
			c0.6-0.3,1-0.3,1.2-0.3C6.7,203.5,6.9,203.5,7,203.5L7,203.5z M2.2,205.8c-0.2,0.3-0.5,0.7-0.9,1.2s-0.7,0.7-0.8,0.7
			s-0.1-0.2-0.1-0.7c0-0.9,0.5-1.6,1.4-2.1c0.3-0.1,0.5-0.2,0.5-0.2c0.1,0,0.1,0.1,0.1,0.3C2.5,205.2,2.4,205.5,2.2,205.8L2.2,205.8
			z M0.3,205.9c-0.1,0-0.1-0.1,0-0.3c0.2-0.2,0.3-0.3,0.4-0.3s0.1,0.1,0,0.3C0.5,205.8,0.4,205.9,0.3,205.9L0.3,205.9z M-1.6,208.5
			c0.2,0.5,0.3,0.8,0.2,0.8c-0.5,0.3-1.1,0.7-2,1.1c-0.8,0.4-1.3,0.6-1.4,0.6c-0.1,0-0.2-0.2-0.3-0.6c0-0.3,0.1-0.7,0.4-1.2
			s0.6-0.9,0.9-1.2c0.3-0.2,0.4-0.4,0.5-0.5c0-0.1,0.2-0.3,0.5-0.5s0.5-0.3,0.6-0.3s0.2,0.1,0.2,0.4S-1.8,208-1.6,208.5L-1.6,208.5z
			 M1.9,210.1c0,0.1-0.1,0.1-0.4,0.2c-0.3,0.1-0.7,0.2-1,0.2c-0.4,0.1-0.6,0.1-0.6,0.1s0-0.1,0.1-0.2c0.5-0.3,1-0.5,1.5-0.5
			C1.6,209.9,1.8,210,1.9,210.1z"/>
		<path id="XMLID_67_" class="st1" d="M26.6,219c0.2-0.2,0.3-0.3,0.4-0.3c0.3,0,0.3,0.1-0.2,0.4c-0.2,0.1-0.3,0.1-0.3,0.1
			S26.5,219.1,26.6,219L26.6,219z M27.6,220.1c0.2-0.1,0.4-0.2,0.5-0.2s0.2,0,0.2,0s-0.1,0.1-0.2,0.2c-0.2,0.1-0.4,0.2-0.5,0.2
			s-0.2,0-0.2,0C27.4,220.2,27.4,220.2,27.6,220.1L27.6,220.1z M34,208.2c0.1-0.1,0.2-0.2,0.4-0.2c0.1,0,0.2,0,0.2,0s0,0.1-0.2,0.1
			C34,208.3,33.9,208.4,34,208.2C34,208.3,34,208.3,34,208.2L34,208.2z M29,203.2c0-0.1,0.1-0.2,0.4-0.2c0.2,0,0.3,0,0.3,0
			s0,0.1-0.1,0.1c-0.1,0.1-0.2,0.1-0.3,0.2c-0.1,0-0.1,0-0.2,0C29.1,203.2,29,203.2,29,203.2L29,203.2z M15.8,201.5
			c0-0.2,0.1-0.3,0.2-0.4c0.1-0.1,0.3-0.1,0.5-0.1c0.4,0,0.6,0.1,0.9,0.2c0.2,0.1,0.6,0.2,1.2,0.3c0.4,0.1,0.6,0.1,0.9,0.2
			c0.2,0.1,0.5,0.3,0.7,0.6c0.5,0.5,0.7,0.9,0.7,1.2s0,0.4,0.1,0.5s0.1,0.3,0.2,0.7c0,0.3-0.1,0.8-0.4,1.6c-0.3,0.7-0.6,1.3-1,1.6
			c-0.2,0.3-0.5,0.6-0.7,1c-0.2,0.3-0.5,0.7-0.9,1.2s-0.8,0.9-1.2,1.1l-0.5,0.3L17,212c0.4,0.4,0.7,0.7,0.9,1c0.2,0.2,0.3,0.6,0.4,1
			c0.1,0.3,0.2,0.5,0.2,0.7s-0.1,0.4-0.2,0.6c-0.2,0.4-0.3,0.7-0.3,0.9s-0.1,0.2-0.2,0.2s-0.3,0.3-0.7,0.9c-0.4,0.6-0.6,0.9-0.6,1
			s-0.2,0.4-0.5,0.9c-0.4,0.5-0.5,0.9-0.5,1s0,0.2-0.1,0.1c-0.1,0-0.1,0-0.3,0.2c-0.1,0.1-0.2,0.3-0.3,0.5s-0.2,0.3-0.2,0.4
			c0,0.1,0.1,0.2,0.3,0.2s0.4,0.1,0.5,0.2c0.2,0.3,0.5,0.1,1-0.9c0.2-0.5,0.4-1.1,0.6-1.8c0.1-0.6,0.3-1,0.5-1.3
			c0.1-0.2,0.2-0.2,0.2-0.1c0,0.1,0,0.3-0.1,0.5c-0.1,0.6-0.2,1-0.4,1.4c-0.2,0.3-0.3,0.6-0.4,0.9c-0.4,0.8-0.5,1.2-0.3,1.2
			c0.1,0,0.2-0.2,0.4-0.5c0.4-0.7,0.6-0.7,0.7,0c0,0.2,0,0.4,0,0.7c-0.1,0.8,0,1.5,0.2,2.1c0.4,1.3,0.5,2.7,0.4,4.3
			c-0.1,1.1-0.1,1.8,0,2s0.2,0.6,0.1,1s-0.1,0.8-0.1,1.1c0,0.6-0.3,0.9-0.9,0.7c-0.7-0.2-1.3-0.7-1.7-1.5v-0.1
			c-0.2-0.5-0.5-1-0.7-1.3s-0.5-0.8-0.7-1.4s-0.5-1-0.7-1.1s-0.1-0.2,0.1-0.3c0.1-0.1,0.4-0.7,0.8-1.7c0.4-1,0.6-1.7,0.6-1.9
			c0-0.4-0.2-0.7-0.7-0.7c-0.5-0.1-1,0.1-1.6,0.4l-0.7,0.4l-0.3-0.4c-0.2-0.3-0.3-0.5-0.3-0.7s-0.1-0.4-0.3-0.6
			c-0.2-0.3-0.3-0.7-0.5-1.4c-0.2-0.6-0.2-1,0-1.4c0.1-0.3,0.5-0.8,1.2-1.4c1.3-1.3,2.1-2.2,2.6-2.9c0.2-0.4,0.4-0.8,0.6-1.1
			c0.2-0.3,0.2-0.5,0-0.5s-0.4,0.1-0.7,0.5s-0.6,0.5-1,0.5s-0.7-0.1-0.9-0.3s-0.3-0.3-0.5-0.3c-0.1,0-0.2-0.2-0.2-0.5
			s-0.1-0.9-0.3-1.8c-0.2-1.1-0.3-1.7-0.3-1.9s0.3-0.5,0.7-0.9c0.7-0.6,1.6-1.5,2.7-2.6c1-1.1,1.6-1.8,1.7-2.1
			c0.1-0.2,0.2-0.4,0.4-0.6c0.2-0.2,0.2-0.4,0.1-0.7s-0.3-0.5-0.5-0.7C15.7,202,15.7,201.8,15.8,201.5L15.8,201.5z M31.1,200
			c-0.2,0-0.3,0.1-0.3,0.2c0,0.1,0,0.3,0,0.5s0,0.3,0,0.4c0,0.2,0,0.2-0.1,0.2h-0.1c-0.1,0-0.1,0.2,0,0.6c0.1,0.5,0,0.7-0.2,0.8
			s-0.3,0.2-0.2,0.3c0.1,0.2-0.3,0.4-1.4,0.6c-0.2,0-0.4,0-0.4,0c-0.1,0,0-0.1,0.2-0.2c0.1-0.1,0.2-0.2,0.2-0.2c0-0.1-0.3,0-1,0.2
			c-0.1,0-0.3,0.1-0.4,0.1s-0.2,0.1-0.3,0.1c-0.1,0-0.1,0-0.1,0c0-0.1-0.1,0-0.4,0.2s-0.7,0.2-1.1,0.1c-0.5-0.1-0.8-0.3-1-0.6
			c-0.2-0.2-0.4-0.3-0.6-0.3s-0.4,0.1-0.4,0.3c0,0.1,0,0.1,0,0.2h0.1c0.1-0.1,0.2,0,0.2,0.2s0.2,0.5,0.7,0.9s0.7,0.7,0.7,0.8
			c0,0.3,0.4,0.5,1.2,0.6c0.8,0.1,1.6,0.1,2.3-0.1c0.3-0.1,0.5,0,0.5,0.1s-0.1,0.2-0.2,0.2s-0.3,0.2-0.5,0.7s-0.6,0.9-1.1,1.4
			s-1,0.8-1.5,1s-1,0.5-1.5,1.1c-0.5,0.5-0.9,1-1,1.3s-0.2,0.5-0.5,0.8c-0.2,0.2-0.4,0.5-0.4,0.9c-0.1,0.3-0.4,0.8-0.9,1.3
			s-0.7,0.8-0.8,0.9c0,0.2,0,0.6,0.1,1.2c0.1,0.7,0.2,1.3,0.3,2c0.1,0.5,0.2,1.1,0.5,1.8s0.5,1,0.7,1.1c0.3,0.1,0.6,0.2,0.8,0.2
			s0.4,0,0.5-0.1l0,0v0.4c-0.1,0.5-0.1,0.9,0.1,1.1c0.1,0.2,0.4,0.4,0.8,0.5c0.5,0.1,0.7,0.1,0.8,0.1c0.1-0.1,0.3-0.1,0.5-0.2
			c0.2,0,0.3,0,0.4,0c0,0,0,0.1-0.1,0.3s-0.3,0.4-0.6,0.6c-0.3,0.2-0.7,0.6-1.2,1.1c-0.5,0.6-1.3,1.2-2.3,1.8
			c-1,0.7-1.5,1.1-1.6,1.3s-0.1,0.5-0.1,0.9s0.1,0.6,0.2,0.7c0.1,0.1,0.2,0.3,0.2,0.6s0.1,0.5,0.2,0.8c0.1,0.2,0.3,0.4,0.4,0.4
			s0.2,0.1,0.3,0.2c0.2,0.1,0.7-0.2,1.5-1.1c0.4-0.5,0.6-0.7,0.7-0.7s0.3-0.2,0.6-0.7c0.3-0.4,0.5-0.6,0.6-0.6s0.2-0.1,0.2-0.3
			s0.1-0.3,0.3-0.4c0.4-0.3,0.9,0,1.4,0.9c0.1,0.2,0.3,0.5,0.7,0.9c0.7,0.9,1.1,1.3,1.1,1c0,0,0,0,0.1,0s0.2,0,0.3,0.1
			c0.1,0,0.3,0.1,0.4,0.1c1.1,0.4,2.3,0.7,3.6,0.9c0.3,0.1,1.1,0.1,2.4,0.1c1.4,0,2.5,0,3.2-0.2s1.2-0.5,1.6-0.9
			c0.2-0.2,0.3-0.4,0.3-0.5s0-0.3-0.1-0.7s-0.3-0.7-0.6-0.9s-0.7-0.3-1.4-0.3c-0.5,0-1-0.2-1.3-0.4c-0.4-0.3-0.6-0.4-0.7-0.4
			c-0.1,0-0.2-0.2-0.4-0.5c-0.1-0.4-0.3-0.5-0.5-0.5s-0.3-0.1-0.5-0.4c-0.2-0.3-0.3-0.5-0.3-0.7s-0.1-0.3-0.3-0.5
			c-0.2-0.1-0.2-0.3-0.1-0.5c0.1-0.2,0.3-0.4,0.6-0.8c0.3-0.3,0.6-0.5,0.9-0.6c0.3-0.1,0.9-0.2,1.7-0.2c0.9-0.1,1.6-0.2,2.1-0.5
			c0.3-0.2,0.6-0.2,0.8-0.2s0.2,0.1,0,0.3c-0.1,0.1-0.2,0.2-0.2,0.3s0.2,0.2,0.6,0.4c0.4,0.2,0.8,0.3,1,0.3c0.3,0.1,0.6,0.1,0.8,0.3
			c0.3,0.1,0.6,0.2,1.1,0.3c0.3,0.1,0.6,0.1,0.7,0c0.1-0.1,0.3-0.2,0.4-0.5c0.2-0.3,0.4-0.6,0.4-0.8s-0.1-0.5-0.2-0.9
			c-0.2-0.5-0.5-0.8-1-1.1c-0.5-0.2-0.9-0.3-1.5-0.3c-0.5,0.1-1,0-1.3-0.2s-0.4-0.2-0.5-0.2s-0.3,0.1-0.5,0.4
			c-0.6,0.6-1.9,1.1-3.9,1.5c-0.9,0.2-1.9,0.5-3,1.1c-1,0.5-1.7,0.7-2.2,0.9c-0.5,0.1-0.8,0.1-1.1,0c-0.3-0.2-0.5-0.2-0.7-0.1
			c-0.1,0.1-0.1,0.1-0.1,0.2c0,0.1,0.1,0.3,0.3,0.6c0.7,1.3,1.4,2,2.1,2c1,0,1.6-0.3,1.8-0.9c0.1-0.4,0.3-0.6,0.4-0.6
			c0.1,0,0.1,0.1,0.1,0.2c-0.1,0.4-0.1,0.7,0,1.1c0.1,0.1,0.1,0.2,0.2,0.2c0.1,0,0.1,0.1,0.2,0.2c0.1,0.5,0,0.9-0.2,1.3
			c-0.2,0.2-0.3,0.5-0.3,0.7c-0.1,0.5-1.3,0.6-3.4,0.4c-1.1-0.1-1.8-0.2-2-0.3c-0.3-0.1-0.6-0.4-1-0.9c-0.4-0.6-0.7-0.9-0.8-0.8
			c-0.1,0.1-0.2,0-0.2-0.1s0-0.2,0.1-0.2s0.2-0.1,0.3-0.3c0.6-1.1,1-1.7,1.2-1.7c0.1,0,0.6-0.4,1.5-1.3c0.9-0.9,1.6-1.5,2.2-2
			c0.4-0.3,0.9-0.6,1.5-0.9c0.6-0.3,1-0.4,1.3-0.4c0.2,0,0.3-0.1,0.5-0.3s0.1-0.5-0.1-0.8c-0.2-0.3-0.4-0.5-0.6-0.5
			c-0.2,0-0.3-0.1-0.4-0.2c-0.1-0.1-0.4-0.1-1-0.1c-0.4,0-0.7,0-0.8-0.1c-0.2,0-0.3-0.1-0.4-0.3s-0.3-0.3-0.5-0.3s-0.3,0.1-0.2,0.3
			c0.1,0.2-0.4,0.4-1.3,0.7s-1.4,0.6-1.5,0.7c-0.1,0.2,0.5,0,1.8-0.5c0.6-0.3,1-0.4,1-0.3c0,0,0,0.1-0.1,0.1s-0.1,0.1-0.2,0.2
			c-0.1,0.1-0.2,0.1-0.3,0.2c-0.5,0.2-1,0.4-1.5,0.7s-0.8,0.4-0.9,0.4s-0.4,0.1-0.9,0.3c-0.6,0.2-0.9,0.3-1,0.2
			c0-0.1,0.1-0.2,0.3-0.3c0.2-0.1,0.3-0.1,0.3-0.2c0.1-0.1,0.1-0.1,0.1-0.2c-0.1-0.1,0-0.3,0.3-0.5s0.8-0.6,1.6-1.1
			c0.8-0.5,1.4-0.8,1.9-1c0.5-0.1,0.9-0.1,1.3,0c0.4,0.2,0.7,0.2,0.8,0.1c0.1-0.1,0.2-0.1,0.2,0s0.1,0.1,0.3,0.1s0.4,0,0.7-0.1
			s0.5-0.1,0.7-0.3c0.6-0.3,1.3-1,2.1-2s1.2-1.8,1.2-2.3c0-0.3,0.1-0.8,0.1-1.4c0.1-0.9,0-1.6-0.3-2.1s-0.9-0.9-1.7-1.2
			c-0.5-0.2-1.1-0.2-1.5-0.2c-0.5,0.1-1.2,0.2-2.2,0.6c-0.9,0.3-1.3,0.4-1.3,0.4c-0.1,0-0.1-0.1-0.1-0.2s0.4-0.3,1.1-0.5
			s1.1-0.4,1.2-0.5c0-0.1-0.1-0.1-0.3,0c-0.3,0.1-0.7,0.2-1.3,0.3c-0.3,0.1-0.5,0.2-0.6,0.2c-0.2,0-0.2-0.1-0.1-0.2
			c0.1-0.2,0.3-0.4,0.4-0.5c0.2-0.2,0.3-0.3,0.3-0.5s0.2-0.6,0.5-1.4c0.3-0.8,0.5-1.2,0.5-1.3c0-0.2,0.2-0.3,0.7-0.4
			c0.4-0.1,0.8-0.1,1,0c1,0.5,1.5,0.3,1.5-0.7c0-0.3-0.2-0.7-0.6-0.9c-0.4-0.3-0.8-0.5-1.3-0.5c-0.4-0.1-0.6-0.1-0.6-0.2
			c-0.1-0.1-0.1-0.3-0.1-0.7c0-0.5-0.1-0.9-0.3-1.1c-0.2-0.2-0.5-0.3-0.9-0.4C31.9,199.9,31.5,199.9,31.1,200L31.1,200z M29.2,209.2
			c0.2,0.3,0.3,0.4,0.3,0.5s-0.2,0.2-0.7,0.4c-0.7,0.4-1.1,0.4-1.1,0.1c0-0.1-0.1-0.2-0.2-0.2s-0.2,0.1-0.2,0.3s-0.1,0.4-0.3,0.6
			c-0.2,0.2-0.3,0.3-0.5,0.3c-0.1,0-0.2-0.2-0.2-0.5s0.3-0.8,0.9-1.3c0.5-0.4,0.9-0.7,1.1-0.7C28.7,208.8,28.9,208.9,29.2,209.2
			L29.2,209.2z M35.7,209.9c0.3,0.1,0.4,0.3,0.4,0.5c0,0.4-0.4,1.1-1.2,2c-0.3,0.3-0.6,0.7-0.9,1c-0.6,0.7-0.8,0.5-0.8-0.7
			c0-0.6-0.1-1-0.2-1c-0.1-0.1-0.2-0.3-0.3-0.6s-0.2-0.6-0.2-0.8c-0.1-0.2,0-0.3,0.3-0.3c0.2,0,0.4-0.1,0.5-0.2
			c0.1-0.1,0.2-0.1,0.5-0.1c0.2,0.1,0.4,0,0.5-0.1C34.4,209.5,34.9,209.6,35.7,209.9L35.7,209.9z M29.9,210.1l-0.1,0.1
			c-0.5,0.3-0.9,0.5-1.2,0.5c-0.1,0-0.1,0,0-0.1s0.3-0.3,0.7-0.5c0.4-0.2,0.6-0.3,0.7-0.3C30.1,209.9,30.1,210,29.9,210.1
			L29.9,210.1z M29.7,214.4c-0.4,0.4-0.6,0.6-0.6,0.6s0-0.1,0-0.3c0-0.3-0.1-0.7-0.1-1.2c-0.1-0.4,0-0.7,0.2-0.9s0.6-0.6,1.4-1
			c0.3-0.2,0.5-0.3,0.6-0.3s0.1,0.1,0.1,0.2c0.1,0.2-0.1,0.7-0.4,1.3C30.5,213.3,30.1,213.9,29.7,214.4L29.7,214.4z M27.4,211.5
			c0,0.1-0.5,0.4-1.5,0.9c-0.1,0.1-0.2,0-0.2-0.1s0.2-0.3,0.7-0.5c0.4-0.3,0.7-0.4,0.8-0.4C27.3,211.4,27.4,211.4,27.4,211.5
			L27.4,211.5z M26.9,215.2c0.1,0.4,0.1,0.6,0.1,0.7c-0.1,0.1-0.3,0.2-0.7,0.3c-0.4,0.1-0.7,0.2-0.9,0.3c-0.2,0.1-0.2,0.1-0.2,0.1
			c-0.1,0,0-0.2,0.2-0.5c0.2-0.4,0.4-0.6,0.5-0.6s0.2-0.1,0.2-0.2c0-0.2,0.1-0.3,0.2-0.5s0.3-0.2,0.4-0.2
			C26.7,214.5,26.8,214.8,26.9,215.2L26.9,215.2z M26.8,216.4c-0.1,0-0.1-0.1-0.1-0.2c0.1-0.1,0.2-0.2,0.3-0.2s0.1,0.1,0.1,0.2
			C27,216.4,26.9,216.4,26.8,216.4L26.8,216.4z M28.7,218.3c0-0.1,0-0.1-0.1-0.1s-0.2,0-0.3,0c-0.1,0-0.3,0.1-0.4,0.2
			c-0.2,0.1-0.6,0.2-1.2,0.2s-1,0.1-1.2,0.2c-0.3,0.1-0.4,0.1-0.4-0.1c0-0.1-0.1-0.2-0.3-0.2c-0.2,0-0.2,0.1-0.3,0.2
			c0,0.1,0,0.5,0,1c0,0.7,0.1,1.1,0.2,1.2c0.2,0,0.3,0,0.4-0.1s0.1-0.2,0.1-0.2c-0.1-0.1-0.1-0.1,0-0.1c0,0,0.1,0,0.2,0
			c0.2,0.1,0.7-0.2,1.5-0.7c0.9-0.6,1.4-0.9,1.6-1.1C28.6,218.5,28.7,218.3,28.7,218.3z"/>
	</g>
</g>
</svg>
